<?xml version="1.0" encoding="UTF-8"?>
<svg width="48px" height="48px" viewBox="0 0 48 48" version="1.1" xmlns="http://www.w3.org/2000/svg" xmlns:xlink="http://www.w3.org/1999/xlink">
    <!-- Generator: Sketch 64 (93537) - https://sketch.com -->
    <title>Branding/Fill</title>
    <desc>Created with Sketch.</desc>
    <g id="Pokooi" stroke="none" stroke-width="1" fill="none" fill-rule="evenodd">
        <g id="Pokooi-prototype" transform="translate(-165.000000, -24.000000)">
            <g id="Hero-01">
                <g id="Horizontal-Menu-01">
                    <g id="Brand/Fabrx/Fill" transform="translate(165.000000, 24.000000)">
                        <g id="Group-2">
                            <circle id="Oval" fill="#12B380" cx="24" cy="24" r="24"></circle>
                            <path d="M15.6441482,29.1254967 C17.428224,29.1254967 18.8745033,30.571776 18.8745033,32.3558518 C18.8745033,34.1399277 17.428224,35.5862069 15.6441482,35.5862069 C13.8600723,35.5862069 12.4137931,34.1399277 12.4137931,32.3558518 C12.4137931,30.571776 13.8600723,29.1254967 15.6441482,29.1254967 Z M32.3558518,21 C34.1399277,21 35.5862069,22.4462792 35.5862069,24.2303551 C35.5862069,26.0144309 34.1399277,27.4607102 32.3558518,27.4607102 C30.571776,27.4607102 29.1254967,26.0144309 29.1254967,24.2303551 C29.1254967,22.4462792 30.571776,21 32.3558518,21 Z M15.6441482,20.7696449 C17.428224,20.7696449 18.8745033,22.2159242 18.8745033,24 C18.8745033,25.7840758 17.428224,27.2303551 15.6441482,27.2303551 C13.8600723,27.2303551 12.4137931,25.7840758 12.4137931,24 C12.4137931,22.2159242 13.8600723,20.7696449 15.6441482,20.7696449 Z M24.430714,20.7696449 C26.2147899,20.7696449 27.6610691,22.2159242 27.6610691,24 C27.6610691,25.7840758 26.2147899,27.2303551 24.430714,27.2303551 C22.6466382,27.2303551 21.2003589,25.7840758 21.2003589,24 C21.2003589,22.2159242 22.6466382,20.7696449 24.430714,20.7696449 Z M15.6441482,12.4137931 C17.428224,12.4137931 18.8745033,13.8600723 18.8745033,15.6441482 C18.8745033,17.428224 17.428224,18.8745033 15.6441482,18.8745033 C13.8600723,18.8745033 12.4137931,17.428224 12.4137931,15.6441482 C12.4137931,13.8600723 13.8600723,12.4137931 15.6441482,12.4137931 Z M32.3558518,12.4137931 C34.1399277,12.4137931 35.5862069,13.8600723 35.5862069,15.6441482 C35.5862069,17.428224 34.1399277,18.8745033 32.3558518,18.8745033 C30.571776,18.8745033 29.1254967,17.428224 29.1254967,15.6441482 C29.1254967,13.8600723 30.571776,12.4137931 32.3558518,12.4137931 Z M24,12.4137931 C25.7840758,12.4137931 27.2303551,13.8600723 27.2303551,15.6441482 C27.2303551,17.428224 25.7840758,18.8745033 24,18.8745033 C22.2159242,18.8745033 20.7696449,17.428224 20.7696449,15.6441482 C20.7696449,13.8600723 22.2159242,12.4137931 24,12.4137931 Z" id="Icon" fill="#FFFFFF"></path>
                        </g>
                    </g>
                </g>
            </g>
        </g>
    </g>
</svg>