<svg xmlns="http://www.w3.org/2000/svg" width="997" height="628.5" class="w-full h-64 sm:h-auto" viewBox="0 0 342.69 264.39"><defs/><g class="animable" style="transform-origin:171.341px 132.195px"><path fill="#eae6ff" d="M339.9 158.21c-5.9-16.54-15.26-21.57-24.14-32.21-10.85-13-18.17-22.36-15.35-39C305 59.8 307-8.08 234.92.79c-25.82 3.18-46.23 23-61.08 42.73-12.63 16.81-35.36 18.3-53.65 22.21C97.71 70.55 74.82 77.82 54 88.48 11.2 110.43-1.59 142 .15 182.36c.53 12.2 2.26 31.41 22.86 53.89 27.81 30.35 68.23 34.41 116.87 20.48 11.13-3.19 21.65-8.2 32.61-12a153.58 153.58 0 0135.19-7.65c27.94-2.7 56.9 2.19 83.7-6.15a88.26 88.26 0 0037.43-23.22c12.8-13.36 17.35-32.06 11.09-49.5z" class="animable" style="transform-origin:171.341px 132.195px"/></g><g class="animable" style="transform-origin:136px 220.48px"><path fill="#cdccff" d="M23 220.48c0 4 50.6 7.22 113 7.22s113-3.23 113-7.22-50.59-7.22-113-7.22-113 3.23-113 7.22z" class="animable" style="transform-origin:136px 220.48px"/></g><path fill="#cdccff" d="M92 229.4c0 2.49-12.85 4.52-28.69 4.52s-28.69-2-28.69-4.52 12.84-4.52 28.69-4.52S92 226.9 92 229.4z" class="animable" style="transform-origin:63.31px 229.4px"/><ellipse cx="282.83" cy="230.34" fill="#cdccff" class="animable" rx="48.14" ry="3.58" style="transform-origin:282.83px 230.34px"/><g class="animable" style="transform-origin:66.7131px 185.55px"><path fill="#d7d7ff" d="M34.3 170.88l-1.85 25.88h24.69l-1.7-25.93-21.14.05z" class="animable" style="transform-origin:44.795px 183.795px"/><path fill="#eae6ff" d="M39.2 173.15a.79.79 0 01.84-.72.73.73 0 110 1.44.79.79 0 01-.84-.72zm.84-.44a.52.52 0 00-.57.44.52.52 0 00.57.44.53.53 0 00.58-.44c0-.25-.26-.44-.58-.44zm-.71.44z" class="animable" style="transform-origin:40.0452px 173.15px"/><path fill="#eae6ff" d="M47.61 173.13a.65.65 0 01.2-.46.93.93 0 01.65-.26.79.79 0 01.85.72.63.63 0 01-.26.51.92.92 0 01-.59.21.8.8 0 01-.85-.72zm.85-.44a.63.63 0 00-.45.17.38.38 0 00-.12.27.52.52 0 00.57.44.66.66 0 00.42-.14.39.39 0 00.16-.3.53.53 0 00-.58-.44z" class="animable" style="transform-origin:48.46px 173.13px"/><path fill="#eae6ff" d="M44 178.36h.24a4.54 4.54 0 003.51-1.48 5.21 5.21 0 001-3.78.27.27 0 00-.31-.23.27.27 0 00-.23.31 4.8 4.8 0 01-.86 3.35 4 4 0 01-3.11 1.29 3.67 3.67 0 01-3-1.05 5 5 0 01-.91-3.57.27.27 0 00-.23-.31.28.28 0 00-.31.23 5.5 5.5 0 001 4 4.09 4.09 0 003.21 1.24z" class="animable" style="transform-origin:44.2641px 175.618px"/><path fill="#bdc6f9" d="M45.91 178.13l-2.95 19.25 26.81-.06-2.71-19.24-21.15.05z" class="animable" style="transform-origin:56.365px 187.73px"/><path fill="#8784ef" d="M36 210.63a5.44 5.44 0 105.44 5.44 5.45 5.45 0 00-5.44-5.44zm0 8a2.53 2.53 0 112.54-2.53 2.52 2.52 0 01-2.54 2.5z" class="animable" style="transform-origin:36px 216.07px"/><path fill="#9aa3f4" d="M35.09 210.63a5.44 5.44 0 105.44 5.44 5.44 5.44 0 00-5.44-5.44zm0 8a2.53 2.53 0 112.53-2.53 2.53 2.53 0 01-2.53 2.5z" class="animable" style="transform-origin:35.09px 216.07px"/><path fill="#8784ef" d="M66.71 210.63a5.44 5.44 0 105.43 5.44 5.44 5.44 0 00-5.43-5.44zm0 8a2.53 2.53 0 112.53-2.53 2.53 2.53 0 01-2.53 2.5z" class="animable" style="transform-origin:66.7px 216.07px"/><path fill="#9aa3f4" d="M65.81 210.63a5.44 5.44 0 105.44 5.44 5.45 5.45 0 00-5.44-5.44zm0 8a2.53 2.53 0 112.54-2.53 2.52 2.52 0 01-2.54 2.5z" class="animable" style="transform-origin:65.81px 216.07px"/><path fill="none" stroke="#9aa3f4" stroke-miterlimit="10" stroke-width="1.5" d="M107.75 149.59H91.41a5 5 0 00-4.23 2.35l-9.87 15.85" class="animable" style="transform-origin:92.53px 158.69px"/><path fill="none" stroke="#9aa3f4" stroke-miterlimit="10" stroke-width="1.5" d="M33.41 196.94h36.51a4 4 0 003.91-3.33L77.61 170a4 4 0 00-3.91-4.59H29.63a4 4 0 00-3.91 4.59l3.78 23.57a4 4 0 003.91 3.37z" class="animable" style="transform-origin:51.665px 181.175px"/><path fill="none" stroke="#9aa3f4" stroke-miterlimit="10" stroke-width="1.5" d="M51.66 165.45v31.49" class="animable" style="transform-origin:51.66px 181.195px"/><path fill="none" stroke="#9aa3f4" stroke-miterlimit="10" stroke-width="1.5" d="M75.82 181.2H27.51" class="animable" style="transform-origin:51.665px 181.2px"/><path fill="none" stroke="#9aa3f4" stroke-miterlimit="10" stroke-width="1.5" d="M66.08 165.45l-3.12 31.49" class="animable" style="transform-origin:64.52px 181.195px"/><path fill="none" stroke="#9aa3f4" stroke-miterlimit="10" stroke-width="1.5" d="M37.96 165.45l2.89 31.49" class="animable" style="transform-origin:39.405px 181.195px"/><path fill="none" stroke="#9aa3f4" stroke-miterlimit="10" stroke-width="1.5" d="M73 195.51l5.91 8.79a3.6 3.6 0 01-3 5.62h-48.4" class="animable" style="transform-origin:53.5201px 202.715px"/></g><g class="animable" style="transform-origin:175.34px 149.825px"><path fill="#4a41a3" d="M150.03 199.68h50.09v13.47h-50.09z" class="animable" style="transform-origin:175.075px 206.415px"/><rect width="173.64" height="124.92" x="88.52" y="79.16" fill="#5851bc" class="animable" rx="9.39" style="transform-origin:175.34px 141.62px"/><rect width="163.41" height="108.38" x="93.37" y="83.72" fill="#c4c3fc" class="animable" rx="5.77" style="transform-origin:175.075px 137.91px"/><path fill="#5851bc" d="M135.82 212h78.5a7.32 7.32 0 017.32 7.32v1.17H128.5v-1.17a7.32 7.32 0 017.32-7.32z" class="animable" style="transform-origin:175.07px 216.245px"/><g class="animable" opacity=".35" style="transform-origin:189.56px 129.625px"><rect width="114.34" height="76.85" x="132.39" y="91.2" fill="#fff" class="animable" rx="5.01" style="transform-origin:189.56px 129.625px"/></g><g class="animable" opacity=".25" style="mix-blend-mode:multiply;transform-origin:189.565px 127.245px"><path fill="#fca70c" d="M143.26 147.35h4.98v12.5h-4.98z" class="animable" style="transform-origin:145.75px 153.6px"/><path fill="#b1affd" d="M154.48 136.37h4.98v23.48h-4.98z" class="animable" style="transform-origin:156.97px 148.11px"/><path fill="#fca70c" d="M165.71 138.8h4.98v21.05h-4.98z" class="animable" style="transform-origin:168.2px 149.325px"/><path fill="#b1affd" d="M176.93 126.91h4.98v32.94h-4.98z" class="animable" style="transform-origin:179.42px 143.38px"/><g class="animable" opacity=".15" style="mix-blend-mode:multiply;transform-origin:155.625px 148.11px"><path d="M154.48 136.37h2.29v23.48h-2.29z" class="animable" opacity=".26" style="transform-origin:155.625px 148.11px"/></g><g class="animable" opacity=".15" style="mix-blend-mode:multiply;transform-origin:144.405px 153.6px"><path d="M143.26 147.35h2.29v12.5h-2.29z" class="animable" opacity=".26" style="transform-origin:144.405px 153.6px"/></g><g class="animable" opacity=".62" style="mix-blend-mode:multiply;transform-origin:178.075px 143.38px"><path d="M176.93 126.91h2.29v32.94h-2.29z" class="animable" opacity=".26" style="transform-origin:178.075px 143.38px"/></g><g class="animable" opacity=".15" style="mix-blend-mode:multiply;transform-origin:166.855px 149.325px"><path d="M165.71 138.8H168v21.05h-2.29z" class="animable" opacity=".26" style="transform-origin:166.855px 149.325px"/></g><path fill="#d5dbda" d="M184.55 163.29h-44.58v-47.46h.68v46.78h43.9v.68z" class="animable" style="transform-origin:162.26px 139.56px"/><path fill="#d5dbda" d="M144.55 141.49l-.45-.51 11.66-10.47 10.8 2.35 11.69-13.02.51.46-11.96 13.31-10.85-2.36-11.4 10.24z" class="animable" style="transform-origin:161.43px 130.665px"/><path fill="#d5dbda" d="M179.67 122.22l-3.29-3.16 4.25-1.14-.96 4.3z" class="animable" style="transform-origin:178.505px 120.07px"/><path fill="#b1affd" d="M188.77 146.46h3.42v3.42h-3.42z" class="animable" style="transform-origin:190.48px 148.17px"/><path fill="#fca70c" d="M188.77 152.45h3.42v3.42h-3.42z" class="animable" style="transform-origin:190.48px 154.16px"/><path fill="#efefef" d="M193.13 153.93h10.84v1.94h-10.84z" class="animable" style="transform-origin:198.55px 154.9px"/><path fill="#efefef" d="M193.13 147.94h10.84v1.94h-10.84z" class="animable" style="transform-origin:198.55px 148.91px"/><path fill="#b1affd" d="M208.88 146.46h3.42v3.42h-3.42z" class="animable" style="transform-origin:210.59px 148.17px"/><path fill="#fca70c" d="M208.88 152.45h3.42v3.42h-3.42z" class="animable" style="transform-origin:210.59px 154.16px"/><path fill="#efefef" d="M213.24 153.93h10.84v1.94h-10.84z" class="animable" style="transform-origin:218.66px 154.9px"/><path fill="#efefef" d="M213.24 147.94h10.84v1.94h-10.84z" class="animable" style="transform-origin:218.66px 148.91px"/><path fill="#b1affd" d="M226.99 146.46h3.42v3.42h-3.42z" class="animable" style="transform-origin:228.7px 148.17px"/><path fill="#fca70c" d="M226.99 152.45h3.42v3.42h-3.42z" class="animable" style="transform-origin:228.7px 154.16px"/><path fill="#efefef" d="M231.36 153.93h7.13v1.94h-7.13z" class="animable" style="transform-origin:234.925px 154.9px"/><path fill="#efefef" d="M231.36 147.94h7.13v1.94h-7.13z" class="animable" style="transform-origin:234.925px 148.91px"/><path fill="#efefef" d="M189.41 113.78h49.08v.89h-49.08z" class="animable" style="transform-origin:213.95px 114.225px"/><path fill="#efefef" d="M139.97 102.83h98.52v2.04h-98.52z" class="animable" style="transform-origin:189.23px 103.85px"/><path fill="#efefef" d="M189.26 116.55h49.23v.89h-49.23z" class="animable" style="transform-origin:213.875px 116.995px"/><path fill="#efefef" d="M189.26 111h49.23v.89h-49.23z" class="animable" style="transform-origin:213.875px 111.445px"/><path fill="#efefef" d="M189.26 119.33h49.23v.89h-49.23z" class="animable" style="transform-origin:213.875px 119.775px"/><path fill="#efefef" d="M189.26 122.11h49.23v.89h-49.23z" class="animable" style="transform-origin:213.875px 122.555px"/><path fill="#efefef" d="M189.26 124.88h49.23v.89h-49.23z" class="animable" style="transform-origin:213.875px 125.325px"/><path fill="#efefef" d="M189.26 127.66h49.23v.89h-49.23z" class="animable" style="transform-origin:213.875px 128.105px"/><path fill="#efefef" d="M189.26 130.43h49.23v.89h-49.23z" class="animable" style="transform-origin:213.875px 130.875px"/><path fill="#efefef" d="M189.26 133.21h49.23v.89h-49.23z" class="animable" style="transform-origin:213.875px 133.655px"/><path fill="#efefef" d="M195.29 135.98h43.2v.89h-43.2z" class="animable" style="transform-origin:216.89px 136.425px"/><path fill="#7a7ae5" d="M241.72 91.2H137.4a5 5 0 00-5 5v4.39h114.33v-4.38a5 5 0 00-5.01-5.01z" class="animable" style="transform-origin:189.565px 95.895px"/><path fill="#cfcfff" d="M232 96.07a1.45 1.45 0 11-1.45-1.44 1.45 1.45 0 011.45 1.44z" class="animable" style="transform-origin:230.55px 96.08px"/><circle cx="236.47" cy="96.07" r="1.44" fill="#cfcfff" class="animable" style="transform-origin:236.47px 96.07px"/><circle cx="242.36" cy="96.07" r="1.44" fill="#cfcfff" class="animable" style="transform-origin:242.36px 96.07px"/></g><rect width="114.34" height="76.85" x="102.02" y="108.2" fill="#c4c3fc" class="animable" opacity=".55" rx="5.01" style="mix-blend-mode:multiply;transform-origin:159.19px 146.625px"/><rect width="114.34" height="76.85" x="104.34" y="105.21" fill="#fff" class="animable" rx="5.01" style="transform-origin:161.51px 143.635px"/><path fill="#fca70c" d="M115.21 161.35h4.98v12.5h-4.98z" class="animable" style="transform-origin:117.7px 167.6px"/><path fill="#b1affd" d="M126.43 150.38h4.98v23.48h-4.98z" class="animable" style="transform-origin:128.92px 162.12px"/><path fill="#fca70c" d="M137.65 152.8h4.98v21.05h-4.98z" class="animable" style="transform-origin:140.14px 163.325px"/><path fill="#b1affd" d="M148.88 140.92h4.98v32.94h-4.98z" class="animable" style="transform-origin:151.37px 157.39px"/><g class="animable" opacity=".15" style="mix-blend-mode:multiply;transform-origin:127.575px 162.12px"><path d="M126.43 150.38h2.29v23.48h-2.29z" class="animable" opacity=".26" style="transform-origin:127.575px 162.12px"/></g><g class="animable" opacity=".15" style="mix-blend-mode:multiply;transform-origin:116.355px 167.6px"><path d="M115.21 161.35h2.29v12.5h-2.29z" class="animable" opacity=".26" style="transform-origin:116.355px 167.6px"/></g><g class="animable" opacity=".62" style="mix-blend-mode:multiply;transform-origin:150.025px 157.39px"><path d="M148.88 140.92h2.29v32.94h-2.29z" class="animable" opacity=".26" style="transform-origin:150.025px 157.39px"/></g><g class="animable" opacity=".15" style="mix-blend-mode:multiply;transform-origin:138.795px 163.325px"><path d="M137.65 152.8h2.29v21.05h-2.29z" class="animable" opacity=".26" style="transform-origin:138.795px 163.325px"/></g><path fill="#d5dbda" d="M156.49 177.3h-44.57v-43.23h.68v42.55h43.89v.68z" class="animable" style="transform-origin:134.205px 155.685px"/><path fill="#d5dbda" d="M116.5 155.5l-.46-.51 11.66-10.47 10.8 2.35 11.7-13.02.51.45-11.96 13.32-10.85-2.36-11.4 10.24z" class="animable" style="transform-origin:133.375px 144.675px"/><path fill="#d5dbda" d="M151.62 136.23l-3.3-3.17 4.26-1.13-.96 4.3z" class="animable" style="transform-origin:150.45px 134.08px"/><path fill="#b1affd" d="M160.71 160.47h3.42v3.42h-3.42z" class="animable" style="transform-origin:162.42px 162.18px"/><path fill="#fca70c" d="M160.71 166.46h3.42v3.42h-3.42z" class="animable" style="transform-origin:162.42px 168.17px"/><path fill="#efefef" d="M165.08 167.94h10.84v1.94h-10.84z" class="animable" style="transform-origin:170.5px 168.91px"/><path fill="#efefef" d="M165.08 161.94h10.84v1.94h-10.84z" class="animable" style="transform-origin:170.5px 162.91px"/><path fill="#b1affd" d="M180.83 160.47h3.42v3.42h-3.42z" class="animable" style="transform-origin:182.54px 162.18px"/><path fill="#fca70c" d="M180.83 166.46h3.42v3.42h-3.42z" class="animable" style="transform-origin:182.54px 168.17px"/><path fill="#efefef" d="M185.19 167.94h10.84v1.94h-10.84z" class="animable" style="transform-origin:190.61px 168.91px"/><path fill="#efefef" d="M185.19 161.94h10.84v1.94h-10.84z" class="animable" style="transform-origin:190.61px 162.91px"/><path fill="#b1affd" d="M198.94 160.47h3.42v3.42h-3.42z" class="animable" style="transform-origin:200.65px 162.18px"/><path fill="#fca70c" d="M198.94 166.46h3.42v3.42h-3.42z" class="animable" style="transform-origin:200.65px 168.17px"/><path fill="#efefef" d="M203.3 167.94h7.13v1.94h-7.13z" class="animable" style="transform-origin:206.865px 168.91px"/><path fill="#efefef" d="M203.3 161.94h7.13v1.94h-7.13z" class="animable" style="transform-origin:206.865px 162.91px"/><path fill="#efefef" d="M161.35 127.79h49.08v.89h-49.08z" class="animable" style="transform-origin:185.89px 128.235px"/><path fill="#efefef" d="M111.92 116.83h98.52v2.04h-98.52z" class="animable" style="transform-origin:161.18px 117.85px"/><path fill="#efefef" d="M161.21 130.56h49.23v.89h-49.23z" class="animable" style="transform-origin:185.825px 131.005px"/><path fill="#efefef" d="M161.21 125.01h49.23v.89h-49.23z" class="animable" style="transform-origin:185.825px 125.455px"/><path fill="#efefef" d="M161.21 133.34h49.23v.89h-49.23z" class="animable" style="transform-origin:185.825px 133.785px"/><path fill="#efefef" d="M161.21 136.11h49.23v.89h-49.23z" class="animable" style="transform-origin:185.825px 136.555px"/><path fill="#efefef" d="M161.21 138.89h49.23v.89h-49.23z" class="animable" style="transform-origin:185.825px 139.335px"/><path fill="#efefef" d="M161.21 141.66h49.23v.89h-49.23z" class="animable" style="transform-origin:185.825px 142.105px"/><path fill="#efefef" d="M161.21 144.44h49.23v.89h-49.23z" class="animable" style="transform-origin:185.825px 144.885px"/><path fill="#efefef" d="M161.21 147.21h49.23v.89h-49.23z" class="animable" style="transform-origin:185.825px 147.655px"/><path fill="#efefef" d="M167.23 149.99h43.2v.89h-43.2z" class="animable" style="transform-origin:188.83px 150.435px"/><path fill="#a4a4f7" d="M213.67 105.21H109.35a5 5 0 00-5 5v4.39h114.33v-4.39a5 5 0 00-5.01-5z" class="animable" style="transform-origin:161.515px 109.905px"/><path fill="#cfcfff" d="M204 110.08a1.45 1.45 0 11-1.44-1.44 1.44 1.44 0 011.44 1.44z" class="animable" style="transform-origin:202.55px 110.09px"/><path fill="#cfcfff" d="M209.86 110.08a1.45 1.45 0 11-1.44-1.44 1.45 1.45 0 011.44 1.44z" class="animable" style="transform-origin:208.41px 110.09px"/><path fill="#cfcfff" d="M215.75 110.08a1.45 1.45 0 11-1.45-1.44 1.45 1.45 0 011.45 1.44z" class="animable" style="transform-origin:214.3px 110.09px"/></g><g class="animable" style="transform-origin:288.095px 192.255px"><rect width="67.51" height="78.07" x="254.34" y="153.22" fill="#a2a7f4" class="animable" rx="6.95" style="transform-origin:288.095px 192.255px"/><rect width="57.09" height="16.04" x="260.58" y="161.39" fill="#9090f4" class="animable" rx="1.77" style="transform-origin:289.125px 169.41px"/><rect width="14.68" height="10.18" x="260.58" y="183.11" fill="#9090f4" class="animable" rx="1.77" style="transform-origin:267.92px 188.2px"/><rect width="14.68" height="10.18" x="281.79" y="183.11" fill="#9090f4" class="animable" rx="1.77" style="transform-origin:289.13px 188.2px"/><rect width="14.68" height="10.18" x="303" y="183.11" fill="#9090f4" class="animable" rx="1.77" style="transform-origin:310.34px 188.2px"/><rect width="14.68" height="10.18" x="260.58" y="199.47" fill="#9090f4" class="animable" rx="1.77" style="transform-origin:267.92px 204.56px"/><rect width="14.68" height="10.18" x="281.79" y="199.47" fill="#9090f4" class="animable" rx="1.77" style="transform-origin:289.13px 204.56px"/><rect width="14.68" height="10.18" x="260.58" y="215.84" fill="#9090f4" class="animable" rx="1.77" style="transform-origin:267.92px 220.93px"/><rect width="14.68" height="10.18" x="281.79" y="215.84" fill="#9090f4" class="animable" rx="1.77" style="transform-origin:289.13px 220.93px"/><rect width="14.68" height="26.54" x="303" y="199.47" fill="#9090f4" class="animable" rx="1.77" style="transform-origin:310.34px 212.74px"/><g class="animable" opacity=".45" style="transform-origin:288.095px 192.665px"><path fill="#e2deff" d="M259.55 162.12a1.77 1.77 0 011.77-1.77h53.55a1.77 1.77 0 011.77 1.77v12.49a1.77 1.77 0 01-1.77 1.77h-53.55" class="animable" style="transform-origin:288.095px 168.365px"/><rect width="14.68" height="10.18" x="259.55" y="182.07" fill="#e2deff" class="animable" rx="1.77" style="transform-origin:266.89px 187.16px"/><rect width="14.68" height="10.18" x="280.75" y="182.07" fill="#e2deff" class="animable" rx="1.77" style="transform-origin:288.09px 187.16px"/><rect width="14.68" height="10.18" x="301.96" y="182.07" fill="#e2deff" class="animable" rx="1.77" style="transform-origin:309.3px 187.16px"/><rect width="14.68" height="10.18" x="259.55" y="198.43" fill="#e2deff" class="animable" rx="1.77" style="transform-origin:266.89px 203.52px"/><rect width="14.68" height="10.18" x="280.75" y="198.43" fill="#e2deff" class="animable" rx="1.77" style="transform-origin:288.09px 203.52px"/><rect width="14.68" height="10.18" x="259.55" y="214.8" fill="#e2deff" class="animable" rx="1.77" style="transform-origin:266.89px 219.89px"/><rect width="14.68" height="10.18" x="280.75" y="214.8" fill="#e2deff" class="animable" rx="1.77" style="transform-origin:288.09px 219.89px"/></g><rect width="14.68" height="26.54" x="301.96" y="198.43" fill="#fca70c" class="animable" rx="1.77" style="transform-origin:309.3px 211.7px"/><path fill="#f9c110" d="M303 224.24v-23a1.78 1.78 0 011.77-1.78h11.14a1.79 1.79 0 01.61.12 1.77 1.77 0 00-1.65-1.16h-11.14a1.78 1.78 0 00-1.77 1.78v23a1.76 1.76 0 001.15 1.66 1.8 1.8 0 01-.11-.62z" class="animable" style="transform-origin:309.24px 211.64px"/></g><g class="animable" style="transform-origin:116.985px 206.965px"><path fill="#fca70c" d="M103.18 188.72l-3.52 36.55h34.65l-3.35-36.61-27.78.06z" class="animable" style="transform-origin:116.985px 206.965px"/><path fill="#5851bc" d="M109.23 192.07a1.21 1.21 0 011.29-1.1 1.22 1.22 0 011.3 1.09 1.21 1.21 0 01-1.3 1.1 1.21 1.21 0 01-1.29-1.09zm1.29-.69a.8.8 0 00-.87.69.79.79 0 00.88.67.7.7 0 100-1.36zm-1.09.69z" class="animable" style="transform-origin:110.525px 192.065px"/><path fill="#5851bc" d="M122.14 192a1 1 0 01.31-.71 1.38 1.38 0 011-.39 1.21 1.21 0 011.3 1.09 1 1 0 01-.39.79 1.4 1.4 0 01-.9.31 1.22 1.22 0 01-1.32-1.09zm1.3-.68a1 1 0 00-.69.26.59.59 0 00-.19.42.8.8 0 00.88.67 1 1 0 00.63-.21.59.59 0 00.24-.47.79.79 0 00-.88-.67z" class="animable" style="transform-origin:123.445px 191.995px"/><path fill="#5851bc" d="M116.6 200.05h.4a7 7 0 005.38-2.27 8.08 8.08 0 001.51-5.8.42.42 0 00-.47-.36.42.42 0 00-.36.47 7.31 7.31 0 01-1.33 5.15 6.14 6.14 0 01-4.76 2 5.61 5.61 0 01-4.6-1.61c-1.85-2.06-1.4-5.44-1.39-5.48a.42.42 0 00-.83-.12c0 .16-.52 3.8 1.59 6.16a6.24 6.24 0 004.86 1.86z" class="animable" style="transform-origin:117.023px 195.84px"/></g><g class="animable" style="transform-origin:53.555px 164.241px"><path fill="#5851bc" d="M99.43 127.44a22.45 22.45 0 00-2.58 4.34 4.28 4.28 0 01-2.41 2.16c-1.91.88-4 1.71-5.92 2.49v5.07c4-2.41 7.62-4.65 7.68-4.67 3.06 1.16 5.62-1.38 6.44-3.21.36-.82-.19-1.16-.21-1.55 0-.2.25-1.39.21-1.55-.24-1.07-3.12-.13-2.88-.64a3.71 3.71 0 011.2-1.8c1.41-1 2.49-2 2.48-2.43 0-.65-3.67 1.43-4.01 1.79z" class="animable" opacity=".35" style="mix-blend-mode:multiply;transform-origin:95.98px 133.513px"/><path fill="#5045af" d="M69.11 106.37c1.34 2.31.18 5.48 1.54 7.79.54.92 1.46 1.65 1.72 2.69a2.35 2.35 0 01-3.37 2.64 3.16 3.16 0 00-.52-.26c-.67-.19-1.27.4-1.85.79a2.79 2.79 0 01-2.43.43 3.6 3.6 0 01-2-2.43c-1-2.91-.28-6.09.61-9 .45-1.46 1.11-3.09 2.55-3.62" class="animable" style="transform-origin:67.0762px 112.98px"/><path fill="#ffb9b0" d="M100.26 131c0 .32.52.6.19 1.28-.73 1.51-3 3.6-5.71 2.64-.12 0-15 8.64-16.14 8.64s-8.95-7.38-11.5-16.56c-.61-2.18-.38-4.74 1.67-5.85a4.88 4.88 0 012.81 2.5c1.69 3.2 6.75 13.77 7.87 14.17 1.4-.94 8.21-3 13.73-5.3a3.76 3.76 0 002.14-1.79 17.6 17.6 0 012.29-3.57c.29-.31 3.56-2 3.56-1.48 0 .33-1 1.21-2.21 2a3 3 0 00-1.06 1.48c-.21.42 2.34-.35 2.55.53.04.17-.2 1.15-.19 1.31z" class="animable" style="transform-origin:83.987px 132.355px"/><path fill="#7762ef" d="M68.17 120.93a6.7 6.7 0 014.44 3.44 14.28 14.28 0 01.61 1.39c.79 2 1.88 3.84 2.67 5.85a11.68 11.68 0 01-3.49 1.69 7.4 7.4 0 01-3.26.44 1.69 1.69 0 01-.55-.12 1.91 1.91 0 01-.57-.49c-.34-.39-.67-.79-1-1.19a3.27 3.27 0 01-.66-1.14 3.46 3.46 0 01.15-1.77" class="animable" style="transform-origin:71.0986px 127.35px"/><g class="animable" opacity=".35" style="mix-blend-mode:multiply;transform-origin:71.5265px 129.976px"><path fill="#7762ef" d="M70.12 126.43a.68.68 0 00-.26-.22.47.47 0 00-.53.24 1.11 1.11 0 00-.11.62 8.2 8.2 0 00.38 2.41l-.26 4.26a7.37 7.37 0 003.05-.44c.45-.17.95-.35 1.45-.55-.5-2.4-2.13-4.42-3.72-6.32z" class="animable" style="transform-origin:71.5265px 129.976px"/></g><path fill="#ffb9b0" d="M63.53 116.7s-.06 2.67.35 2.84a9.77 9.77 0 001.72.53v5.51l-7.34-1.11-5.05-2.81s5.25-1.74 5.3-2.26-.29-3.47-.29-3.47" class="animable" style="transform-origin:59.405px 120.755px"/><path fill="#ffb9b0" d="M52.24 196.41c-2 9.53-1.05 22.61-1.5 29.78.1 0 2.73.36 2.73.36s6.21-30.23 7.34-36a7.09 7.09 0 00.14-1.13c.27-4.35-3.65-4.57-5.86-1a15.36 15.36 0 00-1 1.94c-.12.29-.24.57-.36.88a28.58 28.58 0 00-1 3v.11c-.09.31-.16.62-.24.93v.07c-.11.4-.18.73-.25 1.06z" class="animable" style="transform-origin:55.8516px 206.241px"/><path fill="#ffb9b0" d="M64 162.22c-.08.79-.5 4.54-1 9-.43 3.72-.9 7.91-1.27 11.23-.28 2.5-.48 4.48-.56 5.42a12.61 12.61 0 01-.22 1.6c-1 4.35-4 4.6-5.78 3.59a4.4 4.4 0 01-.69-.47 2.31 2.31 0 01-.78-1.29c-.12-.89-.23-2.11-.34-3.56v-.07c-.22-2.83-.41-6.46-.58-10-.2-4.35-.32-8.54-.35-10.9v-.39c0-7.25 6.63-11.9 10.77-9.65l.14.07.16.1c.47.31.63 1.4.64 2.64a38.4 38.4 0 01-.14 2.68z" class="animable" style="transform-origin:58.285px 174.856px"/><path fill="#ffb9b0" d="M53.87 189.58l-.51-1.9a30.41 30.41 0 01-.63 6.63v.11c-.07.3-.15.62-.24.93v.07a5 5 0 00-.22 1c0 .86 1.83-3 2.25-3.86l.08-.18-.5-2z" class="animable" style="transform-origin:53.435px 192.112px"/><path fill="#ffb9b0" d="M68.22 198.23c-.19 10 2.89 21.7 3.71 28.95.1 0 2.51-.33 2.51-.33s.46-30.55.49-36.59a8.16 8.16 0 00-.06-1.15c-.49-4.4-4.06-3.65-5.44.48a18.35 18.35 0 00-.58 2.19l-.18 1q-.24 1.54-.36 3.27v.11c0 .33 0 .66-.06 1v.08q-.02.47-.03.99z" class="animable" style="transform-origin:71.5715px 206.657px"/><path fill="#ffb9b0" d="M70.29 194.16a2.76 2.76 0 01-.7-.31 2 2 0 01-.91-1.08c-.26-.86-.58-2.06-.92-3.47v-.06c-.68-2.75-1.48-6.32-2.22-9.8-.92-4.27-1.75-8.41-2.17-10.76 0-.13-.4-1.84-.43-2-1.28-7.29 4.41-12 8.54-10.64l.16.05c.83.33 1.06 3.26 1.24 5.23s1.6 22.43 2 26.13a16.14 16.14 0 01.07 1.66c-.17 4.59-2.84 5.6-4.66 5.05z" class="animable" style="transform-origin:68.8536px 175.051px"/><path fill="#ffb9b0" d="M68.53 191l-.78-1.76a33.06 33.06 0 01.56 6.75v.11c0 .32 0 .66-.06 1v.08a6.55 6.55 0 000 1c.14.86 1.14-3.4 1.37-4.4v-.19l-.78-1.86z" class="animable" style="transform-origin:68.685px 193.767px"/><path fill="#5146af" d="M55.86 148.22s-5.34 6.8-4.8 13.62c.23 2.84.59 5.35.91 8.21.05.41.69 6.41.51 6.42 0 0 11 3.4 21.66-1.06 0-.73.85-14.7-4.9-28a92.68 92.68 0 01-13.38.81z" class="animable" style="transform-origin:62.603px 162.56px"/><path fill="#7762ef" d="M72.61 132.54c0 1.94-1.08 3.13-2.56 4.77a57.87 57.87 0 00-.81 7.51c-.08 1.5.56 2.45 0 2.57-2.14 1.86-9.84 3.37-13.37.83.37-3.14-1-10.05-2-13.56-.14-.54-.27-1-.39-1.35-.89-2.67-2.48-11.23-1.3-11.6l1-.3c1.85-.56 4.58-1.52 4.58-1.52s1.6 4.74 5.76 5.31c2.27-.93 2.07-3.81 2-5.13.74.21 1.07.41 3.37 1.09.65.93.09 2.88 1.13 5.77.34.72 2.64 3.24 2.59 5.61z" class="animable" style="transform-origin:62.1855px 134.727px"/><path fill="#ffb9b0" d="M68.84 105.83s.42 5.15-.46 7.85a6.4 6.4 0 01-5.55 3.83c-6.14 0-7.24-8.34-7.21-8.75s9.06-3.9 9.06-3.9z" class="animable" style="transform-origin:62.2798px 111.185px"/><path fill="#5045af" d="M80.54 230.08c-2.19.4-4.53-.22-5.48-.05-.8.13-2.83.65-3.59 0s-.64-3.1.24-3.43a3 3 0 00.56.14 6.1 6.1 0 002.59-.21 14.36 14.36 0 003.62 1.37 11.79 11.79 0 012.41.73c.82.37.88 1.23-.35 1.45z" class="animable" style="transform-origin:76.2276px 228.44px"/><path fill="#5045af" d="M56.93 231.05c-2.19-.37-3.58-1.58-4.53-1.75-.8-.14-2.79-.53-3-1.35-.15-.6.45-3.13 1.38-3.14a3.68 3.68 0 00.49.32 5.92 5.92 0 002.51.68 13.62 13.62 0 002.94 2.51 11.4 11.4 0 012 1.5c.66.63-.55 1.43-1.79 1.23z" class="animable" style="transform-origin:54.1417px 227.946px"/><path fill="#ffb9b0" d="M25 128.87l2-2.4 12.28 11s6-8 7.64-10.47c1.81-2.74 3.45-5.08 6.1-5.54.61.38-.21 10.21-.53 10.45-3.7 2.77-10.91 11.71-13.2 12.18-2.64.51-14.29-15.22-14.29-15.22z" class="animable" style="transform-origin:39.1199px 132.781px"/><path fill="#7762ef" d="M53.94 121s-2.51 0-3.59.92-6.23 9.08-6.23 9.08a3.63 3.63 0 001.35 2.83 7.47 7.47 0 003.71 1.61s2.59-2.57 4-3.74c.91-.73 1 1.07 1 1.07l4.56-4.45z" class="animable" style="transform-origin:51.43px 128.22px"/><path fill="#5045af" d="M52.42 121.1c-.14-.07-.27-.15-.4-.23a3.41 3.41 0 01-1.65-1.66 5.53 5.53 0 010-4 15.28 15.28 0 011.63-1.97 6 6 0 001-3.36 22.06 22.06 0 01.24-3.55c.42-2 1-3.87 2.51-5.14 2.45-2 7.36-3.26 10-1 .49.41.58.75 1.24.81a4.85 4.85 0 012.24.66c.87.5 1.94 1.21 1.81 2.36a4.06 4.06 0 01-1.67 2.43 1.88 1.88 0 01-.94.21c-1 0-1.9-.65-2.92-.54a1.91 1.91 0 00-1.28.71c-.37.45-.32 1.08-.75 1.51-.69.68-1.76.62-2.57 1.06a.84.84 0 00-.35.29.83.83 0 00-.09.44v1.29c-.41-.18-.45-.75-.78-1a.92.92 0 00-1.17.07 2 2 0 00-.57 1.12 3.3 3.3 0 00.23 1.54c.27.88 1 1.67 1.62 1.09.44.65 0 1.73 0 2.46 0 .58 0 1.73.54 2.11s1.29.08 1.32 1a1.75 1.75 0 01-1.66 1.54 6.23 6.23 0 01-2.43-.42 3.77 3.77 0 00-2.43-.12 7.17 7.17 0 01-1.36.61 2.08 2.08 0 01-1.36-.32z" class="animable" style="transform-origin:60.5232px 110.209px"/><path fill="#ffb9b0" d="M30.11 129.26S27.23 127 27 126.31s-.24-1.31-.48-1.93a3.59 3.59 0 00-2-2c-.72-.3-.37-.54-1.14-.39-1.17.23-1.73 1.37-2.19 2.27-2 3.82 3.46 4.54 3.65 4.55.4 0 2.43 2.32 2.43 2.32" class="animable" style="transform-origin:25.4301px 126.537px"/><path fill="#8484ef" d="M21 127.42l2 1.32a.55.55 0 00.77-.18l4.34-7.27-2.58-1.45-4.66 6.82a.55.55 0 00.13.76z" class="animable" style="transform-origin:24.4408px 124.334px"/><path fill="#c4c4f7" d="M13.94 112l.68.46 2.75-4-.68-.47a2.31 2.31 0 00-3.13.81 2.28 2.28 0 00.38 3.2z" class="animable" style="transform-origin:15.221px 110.071px"/><path fill="#c4c4f7" d="M11.43 116.87l12.65 1.92 2.88-4.21-6.38-11.06-9.15 13.35z" class="animable" style="transform-origin:19.195px 111.155px"/><path fill="#bbbbf2" d="M12.23 117.04l11.85 1.75 1.15-1.68-9.97-4.48-3.03 4.41z" class="animable" style="transform-origin:18.73px 115.71px"/><path fill="#c4c4f7" d="M29.28 121.85a1.61 1.61 0 002.19-.57l.51-.75a1.6 1.6 0 00-.26-2.23 1.61 1.61 0 00-2.19.56l-.52.75a1.6 1.6 0 00.27 2.24z" class="animable" style="transform-origin:30.4945px 120.074px"/><path fill="#bbbbf2" d="M29.53 118.86l-.51.75a1.59 1.59 0 00.26 2.24 1.61 1.61 0 002.19-.57l.51-.75a1 1 0 00.1-.17 1.47 1.47 0 11-2.42-1.66 1.83 1.83 0 00-.13.16z" class="animable" style="transform-origin:30.3768px 120.383px"/><path fill="#a4a4f7" d="M11 117.28a1 1 0 001.3-.28l8.7-12.7a.93.93 0 00-.16-1.31.94.94 0 00-1.28.33L10.86 116a.94.94 0 00.14 1.28z" class="animable" style="transform-origin:15.9352px 110.136px"/><path fill="#8484ef" d="M21 103.23l-7.22 10.53a.94.94 0 01-1.29.33.73.73 0 01-.22-.24L10.86 116a.94.94 0 00.15 1.31 1 1 0 001.29-.31l8.7-12.7a1 1 0 000-1.07z" class="animable" style="transform-origin:15.9079px 110.329px"/><path fill="#a4a4f7" d="M25.19 121l.82.56a2.88 2.88 0 003.91-1l.81-1.19a2.84 2.84 0 00-.47-4l-.82-.56a2.87 2.87 0 00-3.9 1l-.82 1.19a2.85 2.85 0 00.47 4z" class="animable" style="transform-origin:27.727px 118.185px"/><path fill="#8484ef" d="M24.77 116.94l-1.22 1.78a.9.9 0 00.15 1.28l3.81 2.6a.91.91 0 001.23-.32l1.26-1.8a.9.9 0 01-1.23.32l-3.81-2.59a.9.9 0 01-.19-1.27z" class="animable" style="transform-origin:26.6745px 119.83px"/><path fill="#ffb9b0" d="M21.42 125.59a4 4 0 01.7-3 6.39 6.39 0 01.71-.76 1 1 0 01.43-.29 1.4 1.4 0 01.92.21 1.69 1.69 0 01.76.76 1 1 0 01-.56 1.2s-.09.06-.1.1a.39.39 0 00.07.24 1.72 1.72 0 01.29 1 .57.57 0 01-.68.5c-.15 0-.34-.08-.39 0s0 .08 0 .13a1.05 1.05 0 01-.23.83.28.28 0 01-.18.11.41.41 0 01-.19 0 3.13 3.13 0 01-.68-.3" class="animable" style="transform-origin:23.1729px 124.081px"/><path fill="#ffb9b0" d="M27 126.47a13.47 13.47 0 01-.23-1.55 3.54 3.54 0 00-1.67-2.9.41.41 0 00-.27-.08.29.29 0 00-.22.26.75.75 0 00.05.36c.12.36.64 1 .48 1.43a4.2 4.2 0 00-.42 1.8c0 .55.28 1.44.93 1.53" class="animable" style="transform-origin:25.8029px 124.63px"/><path fill="none" stroke="#c4c4f7" stroke-linecap="round" stroke-linejoin="round" stroke-width=".75" d="M12.34 97.4l2.55 6.01" class="animable" style="transform-origin:13.615px 100.405px"/><path fill="none" stroke="#c4c4f7" stroke-linecap="round" stroke-linejoin="round" stroke-width=".75" d="M7.03 102.74l5.22 3.91" class="animable" style="transform-origin:9.64px 104.695px"/><path fill="none" stroke="#c4c4f7" stroke-linecap="round" stroke-linejoin="round" stroke-width=".75" d="M3.67 110.01l6.48.64" class="animable" style="transform-origin:6.91px 110.33px"/></g><g class="animable" style="transform-origin:229.144px 70.7587px"><path fill="#5851bc" d="M252.26 79.25h-26.78q.28 13 .45 26.05a10.38 10.38 0 01-.49 3.93c-.35 0-.2.1-.32.73-1.08 1.77-3.19 2.73-5.25 3.19a.56.56 0 000 .29.64.64 0 00-.2.81c.12.29 1.66.68 3.75.45a9.86 9.86 0 002.32-.64 3.63 3.63 0 00.85-.58 2.94 2.94 0 00.79-.19l.08.08 2.4-1s-.26-1.52-.47-2.3a1.42 1.42 0 00-.16-.37 109.14 109.14 0 004.68-16.7c-.43 7-3 21.38-3.16 21.87a3.67 3.67 0 01-3 2.14c-.57 0-3.36-.11-3.06 1.17.08.3 1.52 1 3.62 1.1a10.18 10.18 0 002.4-.23 4.53 4.53 0 001.49-.81l.32.43L235 118v-1.45a3.17 3.17 0 00-.54-1.55v-1.45l1.41-.16s2.83-9.15 4.17-12.26a26.46 26.46 0 001.52-3.9 27.35 27.35 0 00.59-4.87 42.61 42.61 0 011.63-8.81 1.33 1.33 0 01.24-.51 1.35 1.35 0 01.93-.32c3.6-.33 5.25.28 7.5-.42 3-.92 3.28-2.27 3.43-2.33a9.26 9.26 0 00-3.62-.72z" class="animable" opacity=".35" style="mix-blend-mode:multiply;transform-origin:237.741px 99.2663px"/><path fill="#ffb9b0" d="M211.49 46.86s-2.33-1.64-2.41-2.33a16.3 16.3 0 00-2.23-4.05A12.59 12.59 0 00203 38.9c-.59-.09-3.93.2-3.51.65s2.58.29 3 .54l.42.25s-.42.57-.25.91-.72.87-.38 1.45-.14.54.16 1.15c.49 1 1.75 1.56 2.08 1.29.25.59 1.21 1.8 2.1 1.72s3.08 2 3.08 2" class="animable" style="transform-origin:205.472px 43.8718px"/><path fill="#ffb9b0" d="M247 35.17c.07 1.56 0 4.29.41 4.69s1.9.34 1.9.34-5.17 6.54-5.64 6.18-6.57-5.34-5.2-5.6 2.72-.2 2.68-.91l-.12-2.14" class="animable" style="transform-origin:243.79px 40.7822px"/><path fill="#fca70c" d="M252.91 70.08s-10.09 1.14-12.41 1.19-2.2-1.16-2.2-1.16a92.78 92.78 0 00-1-10.62c-.44-1.91-.64-2.61-1-4.42-.87-4-.83-4.8-1.75-9.77l6-4.84a3.2 3.2 0 003.15 1.89 4.6 4.6 0 004.38-2.35l8.22 5.46.77 13.27-1 10.93" class="animable" style="transform-origin:245.81px 55.6358px"/><path fill="#ffb9b0" d="M247.13 33.75a17.24 17.24 0 01-.71 2.32 2.64 2.64 0 01-2.78 1.93l-3.09.07a3.57 3.57 0 01-2.42-.51c-.63-.55-.64-1.48-.78-2.24-.18-1-.33-2-.44-2.94a43.31 43.31 0 01-.27-5.81 3.52 3.52 0 01.07-.79.49.49 0 01.13-.29.61.61 0 01.37-.15 31.73 31.73 0 015.84-.37A6.66 6.66 0 01247 26a7.4 7.4 0 012.09 3.54c.07.21.13.49 0 .62" class="animable" style="transform-origin:242.899px 31.5323px"/><path fill="#ed9c80" d="M224.5 106.06a21.61 21.61 0 00.61 2.69c.26.69 2.51.06 2.66-.39a20.46 20.46 0 00-.71-3.7" class="animable" style="transform-origin:226.135px 106.858px"/><path fill="#38287c" d="M228.56 108.93c.19.74.44 2.16.44 2.16l-2.25 1-.37-.35a4.19 4.19 0 01-1.25 1 9.65 9.65 0 01-2.18.6c-2 .21-3.41-.16-3.52-.43-.49-1.14 2.12-1.44 2.63-1.58a3.45 3.45 0 002.47-2.47c.12-.6 0-.7.3-.68a.77.77 0 01.56.26 1.43 1.43 0 001.6.37 1.67 1.67 0 00.8-.66 1 1 0 01.77.78z" class="animable" style="transform-origin:224.185px 110.776px"/><path fill="#453087" d="M234.45 79.84a38.16 38.16 0 01-11.49.27c.5 1.42 1.72 3.25 2.18 5.25 1.53 6.63 2.07 15.53 2.45 21 0 0-.73 1.41-3.09.34-3.5-8.7-9.67-26.3-9.61-30.13.07-4.87 12.22-6 21.13-7.24" class="animable" style="transform-origin:225.455px 88.2155px"/><path fill="#38287c" d="M250 70.09c2.8 2-15.52 9.75-15.52 9.75a30.94 30.94 0 01-6 .57 4.3 4.3 0 01-.45-1.14c-.1-.53-.05-1.08-.14-1.62a3.74 3.74 0 00-1.89-2.46 8 8 0 00-3-1 40.12 40.12 0 00-6.8-.12c5.51-4.06 16.78-4.6 22-4.93 1.05 1.69 11.37.65 11.8.95z" class="animable" style="transform-origin:233.246px 74.7751px"/><path fill="#ed9c80" d="M230.31 110.69a23.18 23.18 0 00.13 2.76c.14.72 2.47.48 2.69.07a20 20 0 000-3.77" class="animable" style="transform-origin:231.764px 111.831px"/><path fill="#38287c" d="M233.81 114.22c.06.76.06 2.2.06 2.2l-2.39.58-.3-.41a4.15 4.15 0 01-1.4.76 9 9 0 01-2.25.22c-2-.13-3.33-.75-3.4-1-.28-1.21 2.33-1.06 2.87-1.1a3.47 3.47 0 002.86-2c.21-.57.09-.7.41-.62a.82.82 0 01.51.36 1.43 1.43 0 001.51.64 1.73 1.73 0 00.9-.51 1 1 0 01.62.88z" class="animable" style="transform-origin:228.99px 115.201px"/><path fill="#453087" d="M256.08 69.68a112.72 112.72 0 01-12.41.4c-1.59 0-13.58 2.25-14.73 4.28-1.88 3.34 1.23 22.88.94 36.87 0 0 1.44 1.2 4 .07.63-6.87 4.69-23.08 1.89-30.65 6.61.88 11.94 1.75 18-.24a4.79 4.79 0 003.09-3.28c.58-1.82.25-5.82-.78-7.45z" class="animable" style="transform-origin:242.738px 90.7323px"/><path fill="#fca70c" d="M240.5 40.46l-1.72.1a13.51 13.51 0 00-3.56.68c-1.64.6-2.79 2.12-4.12 3.31s-7.92 7.47-9.16 7.7-12.1-7.25-12.1-7.25l-2.66 2.65s11.8 10.9 15.31 10.92c1.71 0 11.13-5 14.14-6.88z" class="animable" style="transform-origin:223.84px 49.515px"/><path fill="#ce4a30" d="M222.52 56.51c-2.42.14-13.53-8.34-14.82-9.33l-.52.51s11.8 10.9 15.31 10.92c1.43 0 8.2-3.43 12.16-5.7l1-.59-.62-3.67s-9.93 7.72-12.51 7.86z" class="animable" opacity=".25" style="mix-blend-mode:multiply;transform-origin:221.415px 52.895px"/><path fill="#a4a4f7" d="M211.21 71.86h27l-4.84-15.78a2.07 2.07 0 00-2-1.46h-23.63a1.34 1.34 0 00-1.29 1.74z" class="animable" style="transform-origin:222.299px 63.2399px"/><path fill="#7a74d1" d="M210.87 71.86h26.59l-4.84-15.78a2.08 2.08 0 00-2-1.46H207a1.35 1.35 0 00-1.29 1.74l4.64 15.11a.54.54 0 00.52.39z" class="animable" style="transform-origin:221.556px 63.24px"/><g class="animable" opacity=".25" style="mix-blend-mode:multiply;transform-origin:246.963px 56.02px"><path fill="#ce4a30" d="M252.38 48.07a104.63 104.63 0 00-2 15.17c-4.72 1.83-6.64 4.56-11.26 6.61 0 0-3.64-.6-4 .77-.23.79 4.26 1.42 4.26 1.42 4.28 0 15.56-3.1 16.33-3.31s3-14.55 3.07-22.34a4.83 4.83 0 00-.72-3.16 4 4 0 00-1.39-1 19.48 19.48 0 00-8.59-2.23" class="animable" style="transform-origin:246.963px 56.02px"/></g><path fill="#ffb9b0" d="M239.8 70.79a2.7 2.7 0 00-2.25-.71c-.6 0-1.2.06-1.8.14-.27 0-.59.11-.61.4s1.32 0 2 .2a36.48 36.48 0 01-4.18.12 1.11 1.11 0 00-.48 0 .39.39 0 00-.27.36.51.51 0 00.19.32 2.83 2.83 0 001.44.58 11.05 11.05 0 006.34-.56" class="animable" style="transform-origin:236.195px 71.2401px"/><path fill="#fca70c" d="M252.08 48c-.11 6.5-.57 9.47-.44 16-3.26.7-7.77 4.39-12.39 6.45a2.45 2.45 0 00.15 1.55c.35.13 15.57-3.57 16.78-4.69s2.53-13.17 2.62-21a4.83 4.83 0 00-.72-3.16 4 4 0 00-1.39-1 19.48 19.48 0 00-8.61-2.15" class="animable" style="transform-origin:249.01px 56.0017px"/><path fill="none" stroke="#a4a4f7" stroke-miterlimit="10" d="M224.59 63.51c.1 1.38-1.54 2.51-3.65 2.51s-3.91-1.13-4-2.51 1.54-2.5 3.66-2.5 3.89 1.12 3.99 2.5z" class="animable" opacity=".45" style="transform-origin:220.765px 63.515px"/><ellipse cx="220.76" cy="63.51" fill="#a4a4f7" class="animable" rx="1.39" ry="2.43" style="transform-origin:220.76px 63.51px" transform="rotate(-87.77)"/><path fill="#483a99" d="M242.37 29.6c-.05-.25-.59-.29-1.13-.23a8.37 8.37 0 00-2.28.49c-.3.23-.28.39-.44.41s-.16-.14-.51-.3a4.56 4.56 0 00-1.72 0c-.54.07-1 .19-1 .43a1.4 1.4 0 00.21.75c.11.07.11.06.54 1a1 1 0 001.3.71c.9-.2.95-1.21 1-1.64s.13-.48.27-.5.23 0 .4.42.29 1.3 1.21 1.35c1.19.07 1.71-.34 1.88-1.11.22-1 .17-1 .26-1.13a5 5 0 01.89.07v-.31a7.4 7.4 0 01-.88-.41zM238 31.69a1 1 0 01-.88 1.09c-.54.07-.8-.22-1.09-.93a1.81 1.81 0 01-.18-1.26c.09-.17.39-.16 1.07-.21s.91-.05 1 .25a3.69 3.69 0 01.08 1.06zm3.9-.57c-.11.75-.39 1.11-1.14 1.2-1.06.13-1.27-.29-1.43-.8a3.57 3.57 0 01-.19-1.05c0-.31.25-.36.92-.48s1.57-.28 1.7-.14a1.81 1.81 0 01.17 1.27z" class="animable" style="transform-origin:239.27px 31.1304px"/><path fill="#483a99" d="M249.59 27.94a10.29 10.29 0 00-.3-1.6 5.06 5.06 0 00-2.49-3.27 8 8 0 00-5.64-.56c-1 .29-1.42.83-1.95.81a5.76 5.76 0 01-1.45-.47c-4-1.45-3.36 2.5-2.93 3.58.19.48 1.11.83 1.23 1a13 13 0 01.19 1.61.88.88 0 00.5.6v-1.45a1.65 1.65 0 01.6-1.19 3.79 3.79 0 011.45-.41 11 11 0 013 .49c.76.65.95 2.13 1.16 3 .1.41.2.68.37.68.12-1.2.54-1.23 1.25-.82a2.07 2.07 0 01.61 1.61 1.71 1.71 0 01-1.2 1.77c-.29.06.57 1.69 1 2.1a2.47 2.47 0 00.42.37 2.6 2.6 0 00.49.18l.57.15a1.57 1.57 0 00.8.07c.42-.12.65-.57.84-1 .31-.65.68-1.29.94-2a11.75 11.75 0 00.54-5.25z" class="animable" style="transform-origin:242.095px 29.2238px"/></g><g class="animable" style="transform-origin:298.455px 72.785px"><path fill="#d5d2ff" d="M322.33 87.77h-51.09l6.12-4.53v-22.1a3.34 3.34 0 013.33-3.34h41.64a3.34 3.34 0 013.34 3.34v23.29a3.34 3.34 0 01-3.34 3.34z" class="animable" style="transform-origin:298.455px 72.785px"/><path fill="#fff" d="M297.88 62.11h23.35v2.23h-23.35z" class="animable" opacity=".45" style="transform-origin:309.555px 63.225px"/><path fill="#fff" d="M297.88 65.45h23.35v2.23h-23.35z" class="animable" opacity=".45" style="transform-origin:309.555px 66.565px"/><path fill="#fff" d="M297.88 68.79h23.35v2.23h-23.35z" class="animable" opacity=".45" style="transform-origin:309.555px 69.905px"/><path fill="#fff" d="M297.88 72.04h23.35v2.23h-23.35z" class="animable" opacity=".45" style="transform-origin:309.555px 73.155px"/><path fill="#fff" d="M297.88 75.93h16.29v2.23h-16.29z" class="animable" opacity=".45" style="transform-origin:306.025px 77.045px"/><rect width="14.67" height="17.15" x="281.38" y="62.11" fill="#a9adff" class="animable" rx="3.39" style="transform-origin:288.715px 70.685px"/><path fill="#fff" d="M281.38 81.4h14.67v1.84h-14.67z" class="animable" opacity=".45" style="transform-origin:288.715px 82.32px"/><path fill="#fff" d="M290.16 73.24h-5.32a.65.65 0 01-.64-.49l-1-3.78a.67.67 0 01.64-.84h7.37a.66.66 0 01.64.84l-1 3.78a.66.66 0 01-.69.49z" class="animable" style="transform-origin:287.527px 70.686px"/><path fill="#fff" d="M291.1 74.09h-6.41a.13.13 0 110-.26H291l2.23-7.78a.13.13 0 01.13-.1h1.39a.13.13 0 01.13.13.13.13 0 01-.13.14h-1.29L291.22 74a.12.12 0 01-.12.09z" class="animable" style="transform-origin:289.72px 70.02px"/><path fill="#fff" d="M285.67 75.14a.78.78 0 01-.78.77.78.78 0 010-1.55.78.78 0 01.78.78z" class="animable" style="transform-origin:284.934px 75.135px"/><circle cx="290.53" cy="75.14" r=".78" fill="#fff" class="animable" style="transform-origin:290.53px 75.14px"/></g><g class="animable" style="transform-origin:162.935px 34.08px"><path fill="#d5d2ff" d="M132.51 56.9h65.1l-7.79-5.76V15.52a4.26 4.26 0 00-4.26-4.26h-53.05a4.25 4.25 0 00-4.25 4.26v37.13a4.25 4.25 0 004.25 4.25z" class="animable" style="transform-origin:162.935px 34.08px"/><g class="animable" opacity=".45" style="transform-origin:159.3px 33.7px"><path fill="#fff" d="M-133.91-17.87h-29.75v-2.85h29.75z" class="animable" style="transform-origin:148.785px 19.295px"/><path fill="#fff" d="M-133.91-22.12h-29.75v-2.85h29.75z" class="animable" style="transform-origin:148.785px 23.545px"/><path fill="#fff" d="M-133.91-26.37h-29.75v-2.85h29.75z" class="animable" style="transform-origin:148.785px 27.795px"/><path fill="#fff" d="M-133.91-30.52h-29.75v-2.85h29.75z" class="animable" style="transform-origin:148.785px 31.945px"/><path fill="#fff" d="M-133.91-34.66h-29.75v-2.85h29.75z" class="animable" style="transform-origin:148.785px 36.085px"/><path fill="#fff" d="M-133.91-42.19h-29.75v-2.85h29.75z" class="animable" style="transform-origin:148.785px 43.615px"/><path fill="#fff" d="M-133.91-46.68h-50.78v-2.85h50.78z" class="animable" style="transform-origin:159.3px 48.105px"/></g><rect width="18.69" height="21.85" x="166" y="17.87" fill="#c4c4f7" class="animable" rx="4.31" style="transform-origin:175.345px 28.795px" transform="rotate(180)"/><path fill="#fff" d="M-166-42.44h-18.69v-2.35H-166z" class="animable" opacity=".45" style="transform-origin:175.345px 43.615px"/><path fill="#fff" d="M173.5 32.05h6.79a.84.84 0 00.81-.63l1.31-4.81a.85.85 0 00-.82-1.07h-9.39a.85.85 0 00-.82 1.07l1.31 4.81a.84.84 0 00.81.63z" class="animable" style="transform-origin:176.895px 28.795px"/><path fill="#fff" d="M172.31 33.13h8.17a.17.17 0 00.17-.17.17.17 0 00-.17-.16h-8l-2.85-9.92a.16.16 0 00-.16-.12h-1.78a.17.17 0 000 .34h1.65l2.81 9.9a.16.16 0 00.16.13z" class="animable" style="transform-origin:174.085px 27.945px"/><path fill="#fff" d="M179.23 34.46a1 1 0 101-1 1 1 0 00-1 1z" class="animable" style="transform-origin:180.23px 34.46px"/><path fill="#fff" d="M172 34.46a1 1 0 101-1 1 1 0 00-1 1z" class="animable" style="transform-origin:173px 34.46px"/></g><g class="animable" style="transform-origin:276.864px 172.095px"><path fill="#5851bc" d="M254.34 171.63l1.81 4.75h7.57s-.53 20.58-.56 24.44 3.17 30.47 3.17 30.47h4.38l-.45-33.55 6.21-17.22s4.68 23 6.61 26.9 12.35 23.87 12.35 23.87h4l-10.33-44.13-4.43-15.33-22.34-10.44-8 .79" class="animable" opacity=".35" style="mix-blend-mode:multiply;transform-origin:276.88px 196.34px"/><g class="animable" opacity=".35" style="mix-blend-mode:multiply;transform-origin:252.059px 124.819px"><path fill="#5851bc" d="M262.16 139.18v-31.05c-4.63 6.06-9.22 11.5-13.85 17.56-2 2.63-9.88 11.34-4.51 14.84 1.37.89 3.76.85 4.95.93 4.28.3 8.53-.88 12.69-2.06z" class="animable" style="transform-origin:252.059px 124.819px"/></g><path fill="#5851bc" d="M262.16 145.86l-2.58.2-.05-.15-2 .16-.6-1.71a2.58 2.58 0 00-2.53-1.6 1.38 1.38 0 00-1.28 1.91c.1.3.4 1.13.6 1.69l-2.11.17v.14l-4.35.34c-.68 0-1.7.89-1.48 1.51v.09a.78.78 0 000 .16l3.76 10.62-.1 44.69h4.37l8.26-32.1zm-6.79-.33a1.46 1.46 0 01-1.42-.9.78.78 0 01.72-1.08 1.47 1.47 0 011.42.9.78.78 0 01-.72 1.08z" class="animable" opacity=".35" style="mix-blend-mode:multiply;transform-origin:253.955px 173.418px"/><ellipse cx="283.08" cy="241.37" fill="#eae6ff" class="animable" rx="28.69" ry="3.02" style="transform-origin:283.08px 241.37px"/><path fill="#9aa3f4" d="M267.69 237.08a7.26 7.26 0 01-3 2.27c-1.59.71-5 1-3.1 1.67a11.24 11.24 0 005.19.07 22.48 22.48 0 013.5-.21c1.72 0 1.74-.12 1.51-2.07-.33-2.68-3.33-3.25-4.1-1.73z" class="animable" style="transform-origin:266.461px 238.806px"/><path fill="#9aa3f4" d="M299 236.11c-.1.54.67 2.18-.7 3.38s-4.5 2.47-2.43 2.52a12 12 0 005.11-.95c1.05-.52.21-1.34 1.51-1.75 1.72-.54 1.37-1.81.47-2.59-1.13-2.58-3.64-2.37-3.96-.61z" class="animable" style="transform-origin:299.445px 238.401px"/><path fill="#4a41a3" d="M292.42 181.5s4.12-12.12-7.57-22.1c0 0-6.26 2.5-11.28 2.8a27.49 27.49 0 01-6-.13s-.33 10.76-.34 16.56z" class="animable" style="transform-origin:280.177px 170.45px"/><path fill="#4a41a3" d="M266.32 201.61c-.23-5.41 5.65-4.7 7.81-.66 4.48 8.37-1.65 27.64-2.46 36.77a4.67 4.67 0 01-3.1.19 2.16 2.16 0 01-.9-1c.13-11.19-1.11-29.5-1.35-35.3z" class="animable" style="transform-origin:271.033px 217.913px"/><path fill="#4a41a3" d="M273.93 202.43c-.68 2.22-8.17 4.54-7.56-3.51.26-3.57 1-23.28 1.12-25.18s.46-4.68 1.38-5c4.59-1.73 12.71 4.28 11.5 11.41-.8 4.74-5.04 17.7-6.44 22.28z" class="animable" style="transform-origin:273.413px 186.49px"/><path fill="#4a41a3" d="M285.73 205.51c-1.82-5.11 4.07-6 7.41-2.87 7.82 7.37 8.12 24.74 10 33.7a6.81 6.81 0 01-3.42 1 1.21 1.21 0 01-.93-.47c-3.14-10.76-11.13-25.87-13.06-31.36z" class="animable" style="transform-origin:294.264px 219.082px"/><path fill="#4a41a3" d="M293.46 203.84c.2 2.3-6 7.06-8.5-.62-1.09-3.41-5.76-23.56-6.35-25.38s-.42-5.55.3-6.22c3.6-3.33 11.74-.4 13.3 6.67 1.05 4.71.79 20.78 1.25 25.55z" class="animable" style="transform-origin:285.859px 188.834px"/><path fill="#f2a181" d="M261.28 115.62c.21-.23.42-.45.61-.7 1.49-1.89 1.7-3.57 3.07-5.77a19 19 0 011-1.9 8 8 0 012.23-1.83c.64-.34.09 1.08.09 1.08s.54-.79 1.07-.74c.2 0 .24 1.23.24 1.44a10.07 10.07 0 01-1.12 4.78 2.61 2.61 0 00-.39 1.09 2.46 2.46 0 001.3-.64 1.54 1.54 0 011.35-.39 3.57 3.57 0 01-.26.56 5.89 5.89 0 01-2.37 2.8c-.67.32-1.45.38-2.1.73-1.19.63-1.76 2.09-3 2.68" class="animable" style="transform-origin:266.005px 112.089px"/><rect width="5.12" height="9.42" x="265.81" y="106.25" fill="#5e5dbb" class="animable" rx=".65" style="transform-origin:268.37px 110.96px" transform="rotate(22.7)"/><path fill="#b4b4db" d="M204.503 201.313l3.958 1.656-3.246 7.758-3.957-1.655z" class="animable" style="transform-origin:268.495px 111.005px"/><path fill="#7a74d1" d="M272.1 123.28a28.07 28.07 0 00-5.72 1c-4.07 1.22-5.47 3.1-6.88 3.88 2.73-3.47 5.78-10.83 5.78-10.83s-3.68-3-4.1-2.3-15.83 18.75-15.35 21.67c.2 1.2 2 2.39 3.56 2.34 4.37-.15 9.45-1.74 14.77-3.48 2.34-.77 3.06.88 3.06.88" class="animable" style="transform-origin:258.959px 126.983px"/><path fill="#6960c4" d="M259.5 128.13s-1.94 3.87-2.5 4.17 1.41-.82 2.5-1.94a22.71 22.71 0 002.59-4.1 23.38 23.38 0 00-2.59 1.87z" class="animable" style="transform-origin:259.496px 129.305px"/><path fill="#f2a181" d="M265.59 109.18a.85.85 0 01.27.61 4.77 4.77 0 01-.07 2.6 3.94 3.94 0 01-1 1.33 8.57 8.57 0 01-1.59 1.08" class="animable" style="transform-origin:264.604px 111.99px"/><path fill="#170d54" d="M272.19 102.67c-1 .3-1.57 1.62-1.92 2.53a14.33 14.33 0 00-.77 3.43 4.54 4.54 0 00.17 2.4 4.67 4.67 0 00.67 1 2.12 2.12 0 00.48.51.74.74 0 00.67.11c.32-.12.45-.5.54-.83a22.07 22.07 0 012.46-6.22" class="animable" style="transform-origin:271.951px 107.678px"/><path fill="#f2a181" d="M271.05 109.51c0-.69-.75-1.14-1.37-.42a4.4 4.4 0 00-.69 2.53c0 1 .73 1.19 1.36 1.33" class="animable" style="transform-origin:270.019px 110.837px"/><path fill="#7a74d1" d="M264.17 126.83c1.27-1.46 5.31-3.86 10.7-3.69 3.71.12 13.82.73 14.95 3.22.58 1.27 1.2 14.27.35 18.75-.63 3.38-2.26 11.73-2.26 13.74s1.08 2.88.58 3.47c-1.13 1.31-8.87 1.86-12.5 1.86-3.24 0-8.74-.86-9-1.9-.41-1.54.63-1.48.77-3.09s.55-12.08 0-13.79c-1.07-3.09-1.59-8.13-2.44-10.42-.71-1.73-2.42-6.69-1.15-8.15z" class="animable" style="transform-origin:277.15px 143.656px"/><path fill="#6960c4" d="M287.33 137.35c.39.8 3 5 3 5l.11.51a18.35 18.35 0 01-.27 2.24c-.63 3.38-2.26 11.73-2.26 13.74s1 2.85.58 3.47c-.89 1.21-15.48 3.93-14.77.55.07-.3 12.25-9.6 12.31-9.91.57-2.67 1.06-4.59 1.3-6.53.59-4.68-.33-9.87 0-9.07z" class="animable" style="transform-origin:282.067px 150.881px"/><path fill="#ffbe9d" d="M271.93 118.49a40 40 0 01-.21 4.4 6.81 6.81 0 01-1 .57s.59 3.67 1.52 3.4 7-3.34 7-3.34-.86-.36-.86-.7.82-7 .82-7" class="animable" style="transform-origin:274.98px 121.347px"/><path fill="#ffbe9d" d="M276.15 103.13c-.88.24-3.22-.25-3.86.72a22.28 22.28 0 00-1.46 4 41.21 41.21 0 00-1.14 4c-.46 1.72-1.21 4.88.48 6.32a2.23 2.23 0 001.3.66c.8.15 1.59.31 2.39.45a8.05 8.05 0 003.84.09c1.64-.54 2.54-2.8 3-4.33l2.41-8.78z" class="animable" style="transform-origin:276.115px 111.345px"/><path fill="#3b2e7a" d="M271.78 128.51s-.36 16.51-1 26.55l2.43 3.34 1.67-4.19a127.92 127.92 0 00-1.58-25.58z" class="animable" style="transform-origin:272.878px 143.455px"/><path fill="#3b2e7a" d="M271.22 127.06l.06.23a4.19 4.19 0 00.5 1.22l1.49.12s1-.54 1.14-1.11-1.66-1.5-1.66-1.5l-.22.09a3.12 3.12 0 00-1.29.93z" class="animable" style="transform-origin:272.819px 127.325px"/><path fill="#fff" d="M278.48 121.79a6.4 6.4 0 011.7 1.73c-.77 1.75-2.5 4.86-4.4 6.28a8.67 8.67 0 00-3-3.78s5.22-.92 5.7-4.23z" class="animable" style="transform-origin:276.48px 125.795px"/><path fill="#fff" d="M272.75 126a6.4 6.4 0 00-3 2.82 14.14 14.14 0 01.4-5.23s1.22-1.56 1.64-1.59a8.22 8.22 0 00.96 4z" class="animable" style="transform-origin:271.207px 125.41px"/><path fill="#f2a181" d="M273 162.87a5.48 5.48 0 00-3.57 2 .41.41 0 00-.16.31c0 .15.2.21.35.23.86.14 1-.41 1.8-.74L273 164" class="animable" style="transform-origin:271.135px 164.151px"/><path fill="#e9e6ff" d="M266.72 149.43l6.54 20.95a.75.75 0 01-.69 1.05l-13.64 1.2a1.28 1.28 0 01-1.15-.88l-7-20.64c-.17-.56.64-1.36 1.19-1.37l13.64-1.19a1.23 1.23 0 011.11.88z" class="animable" style="transform-origin:262.04px 160.59px"/><path fill="#e0d9ff" d="M266.27 150l6.45 20.63a.75.75 0 01-.69 1.06l-13.64 1.19a1.27 1.27 0 01-1.15-.88l-6.44-20.63a.75.75 0 01.69-1.05l13.64-1.2a1.26 1.26 0 011.14.88z" class="animable" style="transform-origin:261.762px 161px"/><path fill="#fff" d="M255.38 149.3l.48 1.81 6.38-.56-.52-1.8-6.34.55z" class="animable" style="transform-origin:258.81px 149.93px"/><path fill="#fff" d="M256.59 147.62l.63 2 3-.28-.64-2a2.07 2.07 0 00-2-1.45 1.23 1.23 0 00-.99 1.73zm.67 0a.7.7 0 01.57-1 1.16 1.16 0 011.14.81.7.7 0 01-.58 1 1.16 1.16 0 01-1.13-.85z" class="animable" style="transform-origin:258.35px 147.755px"/><path fill="#ffbe9d" d="M278.18 161.41c-1.43.3-5.24 1.43-5.64 1.62a17.16 17.16 0 00-2.43 1.8c-1.44 1.44-.7 2.11-1.27 4.06a1.65 1.65 0 000 .31c0 .21.28.38.56.19.15.25.59.1.8-.18 0 .2.27.32.71.08.24-.13.2-.12.75-.61a5.45 5.45 0 011.55-.94 11.51 11.51 0 001.51-.7c.58-.38 1.62-.47 2.12-2.12a1.72 1.72 0 01.8-.8l2.33-1.46" class="animable" style="transform-origin:274.401px 165.464px"/><path fill="#7a74d1" d="M287 134.57c.61 2.16 3.13 17.15 3.13 17.15L275.89 162l1.18 3.11s17-5.71 18.36-9.61 1.27-21.5-3.43-27.72a10.73 10.73 0 00-4.52-3" class="animable" style="transform-origin:286.04px 144.945px"/><path fill="#f2a181" d="M272.39 166.81l-.35.32a5 5 0 00-.74.73c-.24.29-.47.59-.68.8a2.57 2.57 0 01-.36.32 6.64 6.64 0 01.86-1.28 3.22 3.22 0 01.88-.7z" class="animable" style="transform-origin:271.325px 167.895px"/><path fill="#f2a181" d="M271.61 165.86a2.19 2.19 0 00-.4.46 6 6 0 00-.35.5l-.19.29a2.85 2.85 0 00-.16.3 7.21 7.21 0 01-1 1.68s.08-.24.23-.57.35-.77.56-1.2a4.3 4.3 0 01.82-1.09 2.24 2.24 0 01.49-.37z" class="animable" style="transform-origin:270.56px 167.475px"/><path fill="#f2a181" d="M270.71 165.1a4.5 4.5 0 01-.34.49 4.8 4.8 0 00-.36.47 5.82 5.82 0 00-.28.61c-.17.43-.33.87-.46 1.2s-.21.55-.21.55a3.87 3.87 0 01.06-.59 5.13 5.13 0 01.4-1.25 3.51 3.51 0 01.34-.63 6.09 6.09 0 01.43-.44 3.81 3.81 0 00.42-.41z" class="animable" style="transform-origin:269.885px 166.76px"/><path fill="#3b2e7a" d="M281.57 113.45c-.55-.33-1-.67-1.34-.14-.2.29-.31.68-.64.77a.65.65 0 01-.75-.52 1.86 1.86 0 01.13-1c.22-.72.44-1.44.67-2.16a3.23 3.23 0 00.15-2.16 2.43 2.43 0 00-.68-.88 7.28 7.28 0 00-3.32-1.42 33.21 33.21 0 01-3.57-.73 3.87 3.87 0 01-1.36-.68 3 3 0 01-1-2.2 4.48 4.48 0 01.7-2.35 3.49 3.49 0 00.35.82 3.12 3.12 0 01.65-1c.35 1.93 8.5 1.29 10.4 2.14 1.32.59 2.41 1 2.37 3.12a.84.84 0 00.26.34 5.91 5.91 0 011.82 4.32c.18 2.37-1.2 4.94-2.55 6.9a4.7 4.7 0 01-1 1.2 2.7 2.7 0 01-1.89.43c-.59-.12-1.75-.07-1.76-.66 0-.43.91-1.19 1.16-1.54" class="animable" style="transform-origin:278.143px 109.039px"/><path fill="#ffbe9d" d="M279.44 115.69a.89.89 0 00.15.71.9.9 0 001 .14 2.58 2.58 0 001.62-2c.19-1-.36-2.05-1.3-1.78a1.37 1.37 0 00-.88 1.35" class="animable" style="transform-origin:280.834px 114.675px"/><path fill="#f2a181" d="M271.93 118.85l2.62.48a3.66 3.66 0 01-2.65 1" class="animable" style="transform-origin:273.225px 119.591px"/></g><g class="animable" style="transform-origin:63.2886px 68.9586px"><path fill="#c4c4f7" d="M66.75 74.05l3.5 1.76-1.75-4.3" class="animable" style="transform-origin:68.5px 73.66px"/><path fill="#c4c4f7" d="M55.89 68.55a7.41 7.41 0 107.4-7 7.2 7.2 0 00-7.4 7z" class="animable" style="transform-origin:63.2886px 68.9586px"/><path fill="#fefefe" d="M61.48 66.26v5a.52.52 0 00.78.45l4.32-2.49a.53.53 0 000-.91l-4.32-2.49a.52.52 0 00-.78.44z" class="animable" style="transform-origin:64.1591px 68.765px"/></g><g class="animable" style="transform-origin:312.411px 122.059px"><path fill="#c4c4f7" d="M308.95 127.15l-3.5 1.76 1.75-4.3" class="animable" style="transform-origin:307.2px 126.76px"/><path fill="#c4c4f7" d="M319.81 121.65a7.41 7.41 0 11-7.4-7 7.2 7.2 0 017.4 7z" class="animable" style="transform-origin:312.411px 122.059px"/><path fill="#fefefe" d="M311.09 125h4.73c.47 0 .87-.74.3-1a1 1 0 00.59-.48.47.47 0 00-.29-.63c.56.13.78-.71.35-1a1.22 1.22 0 00.47-.71.7.7 0 00-.34-.74 1.24 1.24 0 00-.58-.09h-2a4.19 4.19 0 00-.3-2.94c-.16-.26-.59-.57-.94-.37s-.23.66-.21 1A3.32 3.32 0 01311 121s.11 2.66.09 4z" class="animable" style="transform-origin:314.126px 120.988px"/><path fill="#fefefe" d="M308.07 121.04h2.44V125h-2.44z" class="animable" style="transform-origin:309.29px 123.02px"/></g><g class="animable" style="transform-origin:193.491px 67.4889px"><path fill="#c4c4f7" d="M196.95 66.54l2.55-2.76-3.5.69" class="animable" style="transform-origin:197.75px 65.16px"/><path fill="#c4c4f7" d="M187.49 67.18a5.37 5.37 0 105.36-5.06 5.21 5.21 0 00-5.36 5.06z" class="animable" style="transform-origin:192.851px 67.4889px"/><path fill="#fefefe" d="M191.82 69.61h3.1c.31 0 .58-.53.2-.69a.74.74 0 00.39-.35.36.36 0 00-.19-.46c.37.1.51-.51.23-.71a.86.86 0 00.3-.52.5.5 0 00-.22-.53.7.7 0 00-.38-.07h-1.32a3.29 3.29 0 00-.19-2.13c-.11-.19-.39-.42-.61-.27s-.16.47-.15.69a2.44 2.44 0 01-1.19 2.21s.05 1.86.03 2.83z" class="animable" style="transform-origin:193.826px 66.7208px"/><path fill="#fefefe" d="M189.84 66.73h1.6v2.87h-1.6z" class="animable" style="transform-origin:190.64px 68.165px"/></g><g class="animable" style="transform-origin:215.756px 24.7701px"><path fill="#c4c4f7" d="M221.94 29.52a7.89 7.89 0 10-1.8 1.66l3.06 1.63z" class="animable" style="transform-origin:215.756px 24.7701px"/><path fill="#fff" d="M212.41 22.42a1.94 1.94 0 012.73 0l.5.51.5-.5a1.93 1.93 0 112.72 2.75L217 27.06a1.92 1.92 0 01-2.73 0l-1.85-1.89a1.94 1.94 0 01-.01-2.75z" class="animable" style="transform-origin:215.64px 24.7441px"/></g><defs><filter id="active" height="200%"><feMorphology in="SourceAlpha" operator="dilate" radius="2" result="DILATED"/><feFlood flood-color="#32DFEC" flood-opacity="1" result="PINK"/><feComposite in="PINK" in2="DILATED" operator="in" result="OUTLINE"/><feMerge><feMergeNode in="OUTLINE"/><feMergeNode in="SourceGraphic"/></feMerge></filter><filter id="hover" height="200%"><feMorphology in="SourceAlpha" operator="dilate" radius="2" result="DILATED"/><feFlood flood-color="red" flood-opacity=".5" result="PINK"/><feComposite in="PINK" in2="DILATED" operator="in" result="OUTLINE"/><feMerge><feMergeNode in="OUTLINE"/><feMergeNode in="SourceGraphic"/></feMerge><feColorMatrix values="0 0 0 0 0 0 1 0 0 0 0 0 0 0 0 0 0 0 1 0"/></filter></defs></svg>