<?xml version="1.0" standalone="no"?>
<!DOCTYPE svg PUBLIC "-//W3C//DTD SVG 20010904//EN"
 "http://www.w3.org/TR/2001/REC-SVG-20010904/DTD/svg10.dtd">
<svg version="1.0" xmlns="http://www.w3.org/2000/svg"
 width="520.000000pt" height="520.000000pt" viewBox="0 0 520.000000 520.000000"
 preserveAspectRatio="xMidYMid meet">
<metadata>
Created by potrace 1.11, written by Peter Selinger 2001-2013
</metadata>
<g transform="translate(0.000000,520.000000) scale(0.100000,-0.100000)"
fill="#000000" stroke="none">
<path d="M2360 5169 c-484 -43 -967 -236 -1370 -548 -109 -84 -347 -322 -431
-431 -265 -342 -438 -725 -514 -1134 -136 -741 46 -1481 514 -2086 84 -109
322 -347 431 -431 343 -266 724 -438 1137 -514 126 -23 155 -25 473 -25 318 0
347 2 473 25 413 76 794 248 1137 514 109 84 347 322 431 431 468 605 650
1345 514 2086 -76 409 -249 792 -514 1134 -84 109 -322 347 -431 431 -537 415
-1184 607 -1850 548z m1140 -1332 l0 -583 -491 -574 c-270 -316 -499 -584
-510 -595 -10 -11 23 44 74 120 161 244 270 480 325 705 l26 105 3 703 4 702
285 0 284 0 0 -583z m-1220 -862 l0 -286 -276 -319 c-151 -176 -277 -320 -280
-320 -2 0 -4 272 -4 605 l0 605 280 0 280 0 0 -285z m1220 -490 l0 -605 -280
0 -280 0 0 285 0 286 276 319 c151 176 277 320 280 320 2 0 4 -272 4 -605z
m-854 447 c-160 -241 -269 -478 -324 -702 l-26 -105 -3 -703 -4 -702 -285 0
-284 0 0 583 0 583 506 592 c278 326 507 592 508 592 2 0 -38 -62 -88 -138z"/>
</g>
</svg>
