<?xml version="1.0" encoding="UTF-8"?>
<svg width="79px" height="85px" viewBox="0 0 79 85" version="1.1" xmlns="http://www.w3.org/2000/svg" xmlns:xlink="http://www.w3.org/1999/xlink">
    <!-- Generator: Sketch 64 (93537) - https://sketch.com -->
    <title>Brand/Logos/Snapchat</title>
    <desc>Created with Sketch.</desc>
    <g id="🔺--Symbols" stroke="none" stroke-width="1" fill="none" fill-rule="evenodd">
        <g id="Cards/Features/03" transform="translate(-88.000000, -56.000000)" fill="#E0565B" fill-rule="nonzero">
            <g id="Content" transform="translate(24.000000, 56.000000)">
                <g id="Brand/Airbrb" transform="translate(61.000000, 0.000000)">
                    <path d="M76.4352625,68.8331615 C75.8394184,73.2582174 72.8618982,77.0874289 68.6926898,78.789112 C66.6501603,79.6391035 64.4384824,79.8949509 62.2259546,79.6391035 C60.0992759,79.384106 57.971747,78.7032629 55.7600691,77.4282755 C52.6966999,75.7248926 49.6333307,73.0882191 46.0599664,69.1740081 C51.6758601,62.2822771 55.0783761,55.98554 56.3550633,50.3713461 C56.9509072,47.7329725 57.0359064,45.3504463 56.7809092,43.1379185 C56.4409124,41.0112398 55.6750702,39.0537095 54.4833819,37.3520264 C51.8458585,33.5236646 47.4216528,31.3111368 42.4866021,31.3111368 C37.5515514,31.3111368 33.1273456,33.6086637 30.489822,37.3520264 C29.2981339,39.0537095 28.5331416,41.0112398 28.1922949,43.1379185 C27.8522984,45.3504463 27.9372975,47.8179717 28.6181407,50.3713461 C29.8939779,55.98554 33.382343,62.3672763 38.9132378,69.2581574 C35.4248727,73.1732183 32.2765041,75.8107417 29.2131347,77.5124248 C27.0014569,78.789112 24.8739281,79.469955 22.7472494,79.7241027 C20.4497224,79.9799501 18.2371945,79.6391035 16.2805141,78.8741112 C12.1113058,77.1724281 9.13378556,73.3423664 8.53794151,68.9181607 C8.28294406,66.791482 8.45294236,64.6648033 9.30378386,62.2822771 C9.55878131,61.4305855 9.98462706,60.5814442 10.4096228,59.5597542 C11.0054669,58.198918 11.68631,56.7513825 12.3663032,55.304697 L12.4521524,55.1355485 C18.3221937,42.4570755 24.6189307,29.5244547 31.1706652,16.9326806 L31.4256626,16.4209858 C32.1065058,15.1459985 32.786499,13.7851621 33.4681922,12.5084749 C34.1481854,11.1467885 34.9140277,9.8701013 35.8498683,8.76341234 C37.6365506,6.72088277 40.0190767,5.61504383 42.6566004,5.61504383 C45.2941238,5.61504383 47.67665,6.72088277 49.4633323,8.76341234 C50.3991729,9.8701013 51.1650151,11.1467885 51.8458585,12.5084749 C52.5267015,13.7851621 53.2066946,15.1459985 53.887538,16.4209858 L54.1433854,16.9326806 C60.6092707,29.6094539 66.9060078,42.5420746 72.7768991,55.2205477 L72.7768991,55.304697 C73.4577421,56.6663834 74.0527364,58.198918 74.7335794,59.5597542 C75.1594252,60.5814442 75.5844208,61.4305855 75.8394184,62.2822771 C76.5202617,64.493955 76.7752589,66.6223335 76.4352625,68.8331615 L76.4352625,68.8331615 Z M42.4866021,64.8339514 C37.892398,59.0489095 34.9140277,53.6030138 33.8931879,49.0096597 C33.4681922,47.0521294 33.382343,45.3504463 33.6381905,43.8187619 C33.8081888,42.4570755 34.3190337,41.2653874 34.9990268,40.2436974 C36.6157108,37.9487205 39.3382334,36.4994849 42.4866021,36.4994849 C45.6349705,36.4994849 48.4424925,37.8620212 49.974177,40.2436974 C50.6541704,41.2653874 51.1650151,42.4570755 51.3350135,43.8187619 C51.590011,45.3504463 51.5050118,47.1371286 51.0800159,49.0096597 C50.0591762,53.5188646 47.0808061,58.9639103 42.4866021,64.8339514 L42.4866021,64.8339514 Z M80.8594682,60.4097457 C80.4344723,59.3889059 80.0086268,58.283067 79.5836309,57.3472264 C78.9027879,55.8163919 78.2219445,54.3688564 77.6261007,53.00717 L77.5411015,52.9230207 C71.6710601,40.1595485 65.374323,27.2269277 58.7375895,14.4660053 L58.482592,13.9543104 C57.8017489,12.6776232 57.1209056,11.3159368 56.4409124,9.95510045 C55.5892208,8.42256577 54.7383794,6.80758191 53.3775429,5.27504723 C50.6541704,1.87168128 46.7408094,0 42.5716012,0 C38.3173936,0 34.4890321,1.87168128 31.6806601,5.10589894 C30.4048228,6.63673363 29.4689822,8.25341745 28.6181407,9.78595212 C27.9372975,11.1467885 27.2564543,12.5084749 26.5756111,13.7851621 L26.3206137,14.294307 C19.7697292,27.0569294 13.387993,39.9904 7.51710174,52.7530223 L7.43210259,52.9230207 C6.83625854,54.2838572 6.15541534,55.7296926 5.47457216,57.2622272 C5.04957642,58.198918 4.62373067,59.2197578 4.19873492,60.3255968 C3.09204599,63.4731152 2.75204939,66.4514853 3.17704514,69.5140049 C4.11373577,75.8957408 8.36794321,81.2566373 14.2388345,83.6383136 C16.4505124,84.5750041 18.7480394,85 21.1305656,85 C21.8114088,85 22.6622503,84.9150008 23.3430934,84.8291514 C26.1506154,84.4883051 29.0431364,83.5541643 31.8506584,81.9366305 C35.3398735,79.9799501 38.6582402,77.1724281 42.4016029,73.0882191 C46.1449655,77.1724281 49.5483315,79.9799501 52.9516974,81.9366305 C55.7600691,83.5541643 58.6525903,84.4883051 61.4601121,84.8291514 C62.1409554,84.9150008 62.9917968,85 63.6726402,85 C66.0551664,85 68.4368423,84.5750041 70.5643713,83.6383136 C76.5202617,81.2566373 80.6894699,75.8107417 81.6253105,69.5140049 C82.3061538,66.5356345 81.9653072,63.5589643 80.8594682,60.4097457 L80.8594682,60.4097457 Z" id="Logo"></path>
                </g>
            </g>
        </g>
    </g>
</svg>