<?xml version="1.0" encoding="UTF-8"?>
<svg width="629px" height="576px" viewBox="0 0 629 576" version="1.1" xmlns="http://www.w3.org/2000/svg" xmlns:xlink="http://www.w3.org/1999/xlink">
    <!-- Generator: Sketch 64 (93537) - https://sketch.com -->
    <title>Illustration</title>
    <desc>Created with Sketch.</desc>
    <defs>
        <linearGradient x1="90.2065454%" y1="12.324936%" x2="50%" y2="92.3048395%" id="linearGradient-1">
            <stop stop-color="#12B380" offset="0%"></stop>
            <stop stop-color="#008799" offset="100%"></stop>
        </linearGradient>
        <radialGradient cx="49.9764591%" cy="0%" fx="49.9764591%" fy="0%" r="79.6076936%" gradientTransform="translate(0.499765,0.000000),scale(0.722039,1.000000),rotate(90.000000),translate(-0.499765,-0.000000)" id="radialGradient-2">
            <stop stop-color="#485E80" offset="0%"></stop>
            <stop stop-color="#495F80" stop-opacity="0" offset="100%"></stop>
        </radialGradient>
        <linearGradient x1="74.6883297%" y1="23.3530167%" x2="29.440345%" y2="72.2485656%" id="linearGradient-3">
            <stop stop-color="#FF7575" offset="7.82682%"></stop>
            <stop stop-color="#DD315D" offset="100%"></stop>
        </linearGradient>
        <linearGradient x1="78.4023203%" y1="-5.56212625%" x2="53.9682662%" y2="76.4676119%" id="linearGradient-4">
            <stop stop-color="#624B76" offset="0%"></stop>
            <stop stop-color="#381C51" offset="100%"></stop>
        </linearGradient>
        <linearGradient x1="79.414162%" y1="3.44596688%" x2="35.027618%" y2="88.5736742%" id="linearGradient-5">
            <stop stop-color="#3290C4" offset="0%"></stop>
            <stop stop-color="#106CA0" offset="100%"></stop>
        </linearGradient>
        <linearGradient x1="55.3206569%" y1="10.2872031%" x2="68.1583103%" y2="89.6152348%" id="linearGradient-6">
            <stop stop-color="#3290C4" offset="0%"></stop>
            <stop stop-color="#106CA0" offset="100%"></stop>
        </linearGradient>
        <linearGradient x1="87.641399%" y1="8.14798492%" x2="56.0043805%" y2="70.3716293%" id="linearGradient-7">
            <stop stop-color="#3290C4" offset="0%"></stop>
            <stop stop-color="#106CA0" offset="100%"></stop>
        </linearGradient>
        <linearGradient x1="67.2976164%" y1="18.7377558%" x2="64.3540747%" y2="57.6518845%" id="linearGradient-8">
            <stop stop-color="#624B76" offset="0%"></stop>
            <stop stop-color="#381C51" offset="100%"></stop>
        </linearGradient>
    </defs>
    <g id="Pokooi" stroke="none" stroke-width="1" fill="none" fill-rule="evenodd">
        <g id="Pokooi-prototype" transform="translate(-164.000000, -1144.000000)">
            <g id="Feature-03" transform="translate(0.000000, 1024.000000)">
                <g id="Content" transform="translate(164.000000, 120.000000)">
                    <g id="Illustration">
                        <path d="M503.873,167.911158 C562.188128,229.464948 620.666148,287.617081 628.159153,353.058479 C635.652159,418.499876 592.16015,491.392522 533.845021,531.888437 C475.367002,572.384351 402.065863,580.483534 335.280381,574.004188 C268.494899,567.524841 208.225073,546.466966 143.55718,505.971051 C79.0521776,465.475137 9.98621564,405.541184 1.02718756,336.698129 C-7.93184052,267.693091 42.8902824,189.778952 107.558176,128.225162 C172.063178,66.671372 250.413951,21.4779315 318.828347,31.3589347 C387.079852,41.4019214 445.557872,106.357368 503.873,167.911158 Z" id="Path" fill="url(#linearGradient-1)" opacity="0.898646763"></path>
                        <path d="M340.575207,67 L292.233053,67 L292.233053,192.966649 L292.034945,192.966649 L292.034945,304.506793 L273.242975,304.506793 L273.242975,235.713733 L272.752422,235.713733 L249.071898,151.357807 L225.391374,235.713733 L224.900821,235.713733 L224.900821,304.506793 L202.458001,304.506793 L202.458001,115.204999 L166.202518,115.204999 L166.202518,150.469791 L145.48456,169.639283 L145.48456,187.57082 L71.9289025,187.57082 L71.9289025,506 L145.899077,506 L201.827829,506 L224.900821,506 L273.242975,506 L297.448013,506 L340.746901,506 L420.129767,506 L494.22975,506 L499.512633,506 L573.48243,506 L573.648464,506 L624,506 L624,262.230057 L573.648464,225.469559 L573.648464,101.431336 L494.22975,101.431336 L494.22975,290.116033 L483.871525,290.116033 L483.871525,201.282397 L447.615853,201.282397 L447.615853,290.116033 L420.129767,290.116033 L420.129767,259.532142 L416.590235,259.532142 L420.129767,258.632837 L387.65513,228.948251 L387.65513,192.966649 L340.575207,192.966649 L340.575207,67 Z M71.9287138,237.943181 L16,237.943181 L16,506 L71.9287138,506 L71.9287138,237.943181 Z" id="Shape" fill="url(#radialGradient-2)" opacity="0.12"></path>
                        <path d="M295.088338,133.889287 C311.736064,125.853943 320.987527,135.931054 335.532819,134.506521 C351.165187,134.807612 349.274129,124.926209 361.448993,127.39703 C367.714774,128.667254 400.240214,185.821691 404.611162,230.24566 C409.516212,280.100542 366.739048,311.739471 348.187053,365.717406 C336.425504,399.940065 353.577135,448.470151 356.732672,461.88748 C350.672606,462.480251 322.323723,461.044428 301.403188,449.913502 C275.25299,435.999373 218.05887,388.033832 166.107623,380.785086 C118.648109,374.162985 76.6636051,385.875392 20,406.976165 C55.5732142,339.436001 133.781668,322.757488 178.73921,285.288702 C223.696185,247.819915 264.182186,148.80454 295.088338,133.889287 Z" id="Path" fill="url(#linearGradient-3)" fill-rule="nonzero"></path>
                        <path d="M317.357564,116.713126 C318.23954,125.769658 317.146412,133.192367 313,137.259064 C317.493971,139.863029 328.48131,145.057797 336.473291,144.999514 C346.460931,144.928069 357.280096,134.717144 354.579977,134.98224 C352.778651,135.160852 348.331395,123.712808 346.6889,119.303929 C338.411024,118.292425 317.133332,114.423141 317.357564,116.713126 Z" id="Path" fill="#E9A99C" fill-rule="nonzero"></path>
                        <path d="M357.994905,120.829144 C358.134617,115.839125 355.374351,102.165567 353.008678,94.1020125 C349.872698,82.7463264 342.473598,74.9183278 327.446949,74.0571348 C312.4203,73.1959419 307.298137,82.2337565 306.220085,90.1314797 C304.390606,103.528023 314.397044,117.322186 320.304618,121.409554 C326.212193,125.496923 357.823096,127.066668 357.994905,120.829144 Z" id="Path" fill="#F6B3A6" fill-rule="nonzero"></path>
                        <path d="M309.813609,101.545681 C312.778859,100.054652 316.424721,103.993889 317.671235,108.500691 L323.265253,108.732962 C319.703512,104.964182 314.19935,94.4951397 314.971729,89.4882067 C315.937204,83.2281355 321.858145,78.8037525 333.197216,80.7967853 C341.039548,82.1754246 347.717575,80.7462103 351.093869,76.7638909 C355.362988,71.7288606 351.522119,65.1597195 348.700256,60.8065162 C344.889976,54.9285679 342.461951,56.7801778 339.08948,60.1883763 C334.032687,65.3002058 320.491186,65.7010602 312.754005,67.3456869 C299.51075,70.1610331 298.522334,84.1309944 299.13412,90.2393403 C299.898852,97.8743044 306.791004,111.087513 310.960707,113 C309.790667,109.257444 306.026271,103.452549 309.813609,101.545681 Z" id="Path" fill="#64331E" fill-rule="nonzero"></path>
                        <path d="M306.388627,313.821082 C320.952052,318.414911 329.848569,332.066437 322.189566,347.471491 C314.528676,362.878429 270.968568,407.616936 231.202118,441.738217 C231.115341,441.813557 231.028564,441.887013 230.939901,441.960469 C220.360667,453.609847 157.434221,504.96505 149.071571,508.944861 C142.059621,512.282403 141.552165,507.11411 141.01528,501.648226 L141,501.491897 C151.882387,483.698579 174.121793,448.855921 184.272802,437.715086 C190.754658,430.599265 204.157913,419.083615 214.903155,416.879934 C214.899382,416.540906 214.899382,416.201878 214.897496,415.857199 C214.859767,387.46549 250.540157,332.746377 270.000817,320.524418 C280.370654,314.013198 291.827089,309.227253 306.388627,313.821082 Z" id="Path" fill="url(#linearGradient-4)"></path>
                        <path d="M228.81647,449.488494 C225.409413,447.283197 194.483823,439.631059 178.638277,438 C169.159985,438.922147 135.505168,493.759038 132.177301,500.429173 C128.849246,507.097437 118.323761,505.2812 115.474994,508.732238 C114.120844,510.372649 115.903563,522.334375 113.54634,535.298679 C111.189305,548.262982 117.069164,557.222586 119.584956,559.272633 C127.563351,565.772555 129.2122,526.894608 139.182979,514.818783 C161.948036,503.083385 233.077647,452.247453 228.81647,449.488494 Z" id="Path" fill="#EC7F1A" fill-rule="nonzero"></path>
                        <path d="M240,299.123888 C242.707493,296.643251 253.539361,287.957226 266.490961,279 C276.054403,291.896281 308.807864,306.205464 330.994898,306.793383 C331.138994,308.255593 328.20398,334.73659 325.625416,346.05687 C305.848203,340.61957 295.336759,346.26359 283.088576,353 C272.214996,307.952152 255.149068,303.169148 240,299.123888 Z" id="Path" fill="#2B1C3A" fill-rule="nonzero"></path>
                        <path d="M452.365822,100.42293 C452.488183,100.313956 452.610544,100.203102 452.731023,100.092248 C458.704139,94.6341119 486.041545,41.6003799 493.12909,27.8517011 C494.013857,26.1332806 494.584249,25.0286891 494.755555,24.7072134 C495.992345,22.393189 492.319623,18.5497593 488.603603,18 C476.100157,30.4935893 434.668607,72.8053246 428.923271,81.4087001 C428.085567,82.6619108 427.351399,83.8192987 426.717002,84.8977738 C407.969363,93.9840206 366.86913,122.138985 355.301277,133.391576 C342.767711,145.583606 343.001139,166.576293 355.395401,180.895211 C367.787781,195.214129 390.81242,196.615771 403.524822,186.233099 C414.136374,177.565842 443.917242,123.711605 452.365822,100.42293 Z" id="Path" fill="url(#linearGradient-5)"></path>
                        <path d="M338.042063,140.864436 C330.007374,141.648054 320.35589,139.125783 315.522566,136.848393 C305.014353,142.454277 288.563994,155.966037 281.11878,180.510612 C269.664752,218.269324 261.110717,276.614962 260,284.051799 C267.270835,301.664368 307.334348,306.002523 328.97816,301.144468 C333.648477,292.44367 356.721437,255.383811 377.844008,235.919567 C395.450573,219.695282 411.514266,194.161766 400.251675,164.113028 C393.217767,145.345752 365.73985,135.109741 352.934386,133 C351.378245,135.89901 346.074857,140.080818 338.042063,140.864436 Z" id="Path" fill="url(#linearGradient-6)" fill-rule="nonzero"></path>
                        <path d="M376.522189,169 C366.510061,174.244249 342.85,179.777941 326.91202,178.168867 L315,196.358071 C323.242288,209.004062 339.747598,223.666633 349.086847,244 C373.176646,232.045245 389.499128,194.286269 388.988344,189.022978 C388.477559,183.759686 387.65955,175.337277 376.522189,169 Z" id="Path" fill="#FFFFFF" fill-rule="nonzero"></path>
                        <path d="M320.962595,141.240897 C328.043325,153.394519 319.636131,174.422664 309.219539,189.222974 C303.720435,197.03278 289.791621,210.30964 276.594521,221.930904 C289.934212,224.40769 315.150167,224.303862 336.634386,217.730561 C340.426161,219.191714 342.587528,222.650153 339.593133,229.37259 C318.816237,240.867372 243.175875,260.492885 228.048178,255.073026 C225.866172,254.291479 224.018128,253.249417 222.474026,252.007248 C221.659761,251.588157 220.926171,251.033146 220.286392,250.330886 C214.155012,243.591459 215.389543,232.680006 219.080003,219.237021 C222.445883,206.970131 239.110177,170.520592 265.553159,153.137779 C285.275639,140.174293 313.881865,129.087276 320.962595,141.240897 Z" id="Path" fill="url(#linearGradient-7)"></path>
                        <path d="M280.238812,291.084282 C298.355243,289.299165 340.342935,289.59574 353.469966,292.893956 C361.979969,295.034207 370.60093,299.632063 374.147861,305.612677 C379.637518,312.885375 376.180859,329.663584 372.319856,336.050335 C364.445518,349.075076 291.949703,402.764588 282.341394,407.387002 C274.653241,411.083799 272.345667,408.065157 271.753258,401.999538 C272.558182,400.667784 273.440213,399.2038 274.389948,397.626474 C281.322074,386.111054 291.861312,368.603687 302.470135,353.183678 C283.40773,359.74044 264.627424,364.525309 253.349086,363.391901 C225.63939,360.611275 213.050229,333.564394 229.033988,309.942293 C239.533732,294.424056 257.142384,292.995962 273.554934,291.664209 C275.81173,291.480974 278.047839,291.299629 280.238812,291.084282 Z" id="Path" fill="url(#linearGradient-8)"></path>
                        <path d="M364.784071,352.498107 C360.866672,349.958576 331.540851,343.872717 313.326266,342 C302.42994,343.065025 259.568544,404.804565 255.741634,412.485144 C251.914723,420.167603 242.387036,416.531114 239.112483,420.505706 C237.587374,422.355882 237.883347,432.498981 237.004854,444.462202 C232.163719,460.46388 237.285746,470.614492 239.857128,473.413236 C249.098268,483.471809 252.325692,442.963278 263.791342,429.054084 C289.963261,415.533709 369.679877,355.6744 364.784071,352.498107 Z" id="Path" fill="#ED8322" fill-rule="nonzero"></path>
                        <path d="M495.426287,1.9601666 C493.151639,2.98965523 487.902164,14.6180174 488.001387,19.1798989 C489.645125,19.0175463 493.921088,21.6295017 494.844052,24 C497.345229,21.2914241 500.782474,18.7568781 503.154473,15.8524244 C503.966981,14.8560843 509.652665,16.0692084 512.429046,12.6302342 C515.203554,9.19126005 514.070911,4.01952054 510.845217,1.35407542 C508.248561,-0.790598373 500.280741,-0.237620216 495.426287,1.9601666 Z" id="Path" fill="#F6B3A6" fill-rule="nonzero"></path>
                        <path d="M359.076999,228.964436 C356.995991,231.225377 343.87922,231.730764 338.64082,229.830813 C339.471713,227.970762 337.381262,220.76995 335,218.763602 L335.04721,218.689504 C338.353784,213.576737 339.511369,211.788884 343.777246,210.154926 C348.063897,208.515269 349.68036,211.507691 351.585748,211.319596 C356.965777,210.78951 360.334668,206.423424 362.156967,211.243598 C363.622359,215.121397 363.516609,224.140462 359.076999,228.964436 Z" id="Path" fill="#F6B3A6" fill-rule="nonzero"></path>
                    </g>
                </g>
            </g>
        </g>
    </g>
</svg>