<?xml version="1.0" encoding="UTF-8"?>
<svg width="85px" height="85px" viewBox="0 0 85 85" version="1.1" xmlns="http://www.w3.org/2000/svg" xmlns:xlink="http://www.w3.org/1999/xlink">
    <!-- Generator: Sketch 64 (93537) - https://sketch.com -->
    <title>Brand/Logos/Snapchat</title>
    <desc>Created with Sketch.</desc>
    <defs>
        <polygon id="path-1" points="0 -0.000590277778 85 -0.000590277778 85 84.9881944 0 84.9881944"></polygon>
    </defs>
    <g id="🔺--Symbols" stroke="none" stroke-width="1" fill="none" fill-rule="evenodd">
        <g id="Cards/Features/03" transform="translate(-85.000000, -56.000000)">
            <g id="Content" transform="translate(24.000000, 56.000000)">
                <g id="Brand/Snapchat" transform="translate(61.000000, 0.000000)">
                    <g id="Logo">
                        <g id="Group-3">
                            <mask id="mask-2" fill="white">
                                <use xlink:href="#path-1"></use>
                            </mask>
                            <g id="Clip-2"></g>
                            <path d="M71.4562731,-0.000590277778 C78.9352894,-0.000590277778 85,6.06333333 85,13.5447106 L85,71.4560764 C85,78.9354861 78.9352894,85 71.4562731,85 L13.5447106,85 C6.06471065,85 0,78.9354861 0,71.4560764 L0,13.5447106 C0,6.06333333 6.06471065,-0.000590277778 13.5447106,-0.000590277778 L71.4562731,-0.000590277778" id="Fill-1" fill="#F5EA30" mask="url(#mask-2)"></path>
                        </g>
                        <path d="M42.8120602,71.7230787 C42.6517014,71.7230787 42.4939005,71.7185532 42.3362963,71.7110764 L42.3359028,71.7110764 C42.2355556,71.71875 42.1302894,71.7230787 42.0252199,71.7230787 C38.3363773,71.7230787 35.9685764,70.0494444 33.6790856,68.430706 C32.098125,67.3135069 30.6062963,66.2590741 28.8484491,65.9662963 C27.9907755,65.8242361 27.137037,65.7522222 26.3118287,65.7522222 C24.8255093,65.7522222 23.6530208,65.9816435 22.7969213,66.1490856 C22.2766898,66.2508102 21.8278819,66.3383681 21.4868981,66.3383681 C21.1305671,66.3383681 20.7443287,66.2612384 20.5766898,65.6878819 C20.4306944,65.1910648 20.3252315,64.7099884 20.2239005,64.2446528 C19.9624074,63.0467824 19.7766667,62.3103125 19.2747338,62.2331829 C13.4239005,61.3294676 11.7492824,60.0971644 11.3760301,59.2227662 C11.3231019,59.0978241 11.2929977,58.9724884 11.2859144,58.8485301 C11.2668287,58.512662 11.5049074,58.2159491 11.8368403,58.1618403 C20.8309028,56.6806366 24.8640741,47.4882407 25.0315162,47.0978704 C25.0360417,47.0870486 25.0409606,47.0766204 25.0458796,47.0657986 C25.596412,45.9503704 25.7042361,44.9819213 25.3673843,44.1881944 C24.7501505,42.7335532 22.7371065,42.0942824 21.4046528,41.6716435 C21.0786227,41.5685417 20.7695139,41.4709491 20.5257292,41.374537 C17.8667245,40.3234491 17.6455671,39.2444213 17.7498495,38.6944792 C17.9281134,37.7575116 19.1804861,37.1044676 20.193206,37.1044676 C20.4708333,37.1044676 20.7154051,37.1536574 20.9210185,37.2496759 C22.1171181,37.8100463 23.195162,38.0939699 24.1252431,38.0939699 C25.4104745,38.0939699 25.9714352,37.5538657 26.0401042,37.4830324 C26.0074421,36.8742593 25.9669097,36.2385301 25.9253935,35.5825347 C25.6576042,31.3301736 25.3256713,26.0465972 26.6709144,23.0306713 C30.7029051,13.9901736 39.2530787,13.2879398 41.7775,13.2879398 C41.8422338,13.2879398 42.8842708,13.2767245 42.8842708,13.2767245 L43.0338079,13.2761343 C45.5641319,13.2761343 54.1329977,13.9797454 58.1671528,23.025162 C59.5127894,26.042662 59.1798727,31.3309606 58.9116898,35.5799769 L58.9004745,35.7647338 C58.863287,36.3563889 58.8274769,36.9315162 58.7973727,37.4820486 C58.861713,37.5475694 59.3776157,38.0443866 60.5428241,38.0890509 L60.5442014,38.0890509 C61.4296181,38.0552083 62.4472569,37.7728588 63.5640625,37.2496759 C63.8914699,37.096794 64.2548843,37.0645255 64.5024074,37.0645255 C64.8803819,37.0645255 65.2634722,37.1377199 65.5816319,37.2705324 L65.6009144,37.2784028 C66.5042361,37.5985301 67.096088,38.2317014 67.1086806,38.893206 C67.1204861,39.5163426 66.644919,40.4529167 64.3117477,41.374537 C64.0699306,41.4695718 63.7608218,41.5677546 63.4336111,41.6716435 C62.0995833,42.0948727 60.0873264,42.7335532 59.4704861,44.1879977 C59.1332407,44.981331 59.2412616,45.9489931 59.7915972,47.0652083 C59.7965162,47.0760301 59.8020255,47.0864583 59.8061574,47.0978704 C59.9735995,47.4878472 64.0032292,56.6776852 73.0014236,58.160463 C73.3335532,58.2153588 73.5708449,58.5116782 73.5525463,58.8477431 C73.5450694,58.9738657 73.514375,59.1007755 73.4606597,59.2241435 C73.089375,60.0922454 71.4161343,61.3229745 65.5633333,62.2272801 C65.0852083,62.3006713 64.8998611,62.9238079 64.6145602,64.2302894 C64.5108681,64.7058565 64.4057986,65.1727662 64.2611806,65.6640741 C64.1364352,66.0902546 63.8708102,66.2897685 63.4239699,66.2897685 L63.351169,66.2897685 C63.0412731,66.2897685 62.6003356,66.2342824 62.0415394,66.1244907 C61.0506597,65.9306829 59.9397569,65.7522222 58.5262384,65.7522222 C57.7008333,65.7522222 56.8467014,65.8242361 55.9884375,65.9662963 C54.2325579,66.2590741 52.741713,67.3115394 51.1637037,68.4269676 C48.8694907,70.0494444 46.5020833,71.7230787 42.8120602,71.7230787" id="Fill-4" fill="#FFFFFE"></path>
                        <path d="M43.0338079,12.6171875 L43.03125,12.6171875 C42.9763542,12.6171875 42.9248032,12.6171875 42.8758102,12.6181713 C42.8758102,12.6181713 41.8565972,12.6284028 41.7755324,12.6284028 C39.1525347,12.6284028 30.2625579,13.3591667 26.0684375,22.7624884 C24.6578704,25.9259838 24.9960995,31.2988889 25.2672338,35.6163773 C25.2991088,36.1255903 25.3331481,36.6540856 25.3622685,37.1646759 C25.1452431,37.2848958 24.7489699,37.4344329 24.1252431,37.4344329 C23.2927546,37.4344329 22.3087616,37.1715625 21.2010069,36.6523148 C20.9068519,36.5145833 20.5678356,36.4457176 20.193206,36.4457176 C18.8957755,36.4457176 17.3439352,37.2992593 17.1023148,38.5715046 C16.9281829,39.4876157 17.3380324,40.8240046 20.283125,41.9872454 C20.5489468,42.0923148 20.8684838,42.1934491 21.2059259,42.3000926 C22.4224884,42.6865278 24.2615972,43.2701157 24.7607755,44.4457523 C25.0191204,45.0547222 24.9160185,45.8386111 24.4548148,46.7747917 C24.4447801,46.7960417 24.4345486,46.8168981 24.4254977,46.8387384 C24.2635648,47.2153356 20.3712731,56.0883912 11.7298032,57.5109606 C11.0651505,57.6205556 10.5903704,58.2133912 10.6271644,58.8857176 C10.6385764,59.085625 10.6859954,59.2847454 10.7678472,59.477963 C11.4163657,60.9941898 14.1526968,62.1052894 19.1340509,62.8783565 C19.3005093,63.1036458 19.4734606,63.8989468 19.5795139,64.3837616 C19.6835995,64.8618866 19.7910301,65.3549653 19.9441088,65.8751968 C20.0942361,66.3865741 20.484213,66.9979051 21.4868981,66.9979051 C21.8918287,66.9979051 22.3697569,66.9044444 22.9228472,66.7958333 C23.7527778,66.6337037 24.8892593,66.4117593 26.3118287,66.4117593 C27.1008333,66.4117593 27.9185648,66.4802315 28.7420023,66.6167824 C30.3493287,66.8845718 31.7152315,67.8500694 33.2965856,68.9678588 C35.5614815,70.5692824 38.1264352,72.3822222 42.0252199,72.3822222 C42.1322569,72.3822222 42.240081,72.3790741 42.3465278,72.3712037 C42.473044,72.376713 42.637338,72.3822222 42.8120602,72.3822222 C46.7120255,72.3822222 49.2765856,70.5690856 51.5399074,68.9684491 C53.1248032,67.8490856 54.4897222,66.8839815 56.0970486,66.6167824 C56.9191088,66.4802315 57.737037,66.4117593 58.5262384,66.4117593 C59.8834838,66.4117593 60.9573958,66.5843171 61.9152199,66.7714352 C62.5153356,66.8889005 62.9983796,66.9487153 63.351169,66.9487153 L63.3881597,66.9493056 L63.4239699,66.9493056 C64.1645718,66.9493056 64.6869676,66.5579514 64.8943519,65.8478472 C65.0444792,65.3382407 65.1521065,64.8579514 65.2585532,64.3715625 C65.3640162,63.8883218 65.5365741,63.0963657 65.7024421,62.8726505 C70.6851736,62.0989931 73.4207176,60.9896644 74.0678588,59.4799306 C74.151088,59.286713 74.1989005,59.0860185 74.2103125,58.8843403 C74.2476968,58.2116204 73.7725231,57.6195718 73.1084606,57.5103704 C64.4628588,56.0854398 60.573912,47.2143519 60.4123727,46.8381481 C60.403125,46.8165046 60.393287,46.7948611 60.382662,46.7740046 C59.9210648,45.8380208 59.8189468,45.0547222 60.0770949,44.4457523 C60.5758796,43.2701157 62.4142014,42.6865278 63.6309606,42.3008796 C63.9713542,42.1928588 64.2912847,42.0909375 64.5543519,41.9872454 C66.7096528,41.1360648 67.7908449,40.0906829 67.7680208,38.8802199 C67.7493287,37.9294792 67.0089236,37.08125 65.8319097,36.6607755 L65.8283681,36.6595949 C65.4324884,36.4953009 64.9626273,36.4055787 64.5024074,36.4055787 C64.1877894,36.4055787 63.7210764,36.4484722 63.2850579,36.6523148 C62.2599421,37.1328009 61.3385185,37.3939005 60.5442014,37.4295139 C60.0174769,37.404919 59.6727546,37.2721065 59.4761921,37.1638889 C59.5011806,36.725706 59.5291204,36.2747338 59.558831,35.8034954 L59.5698495,35.6203125 C59.8425579,31.2998727 60.1809838,25.9222454 58.7690394,22.7565856 C54.5731481,13.3489352 45.6642824,12.6171875 43.0338079,12.6171875 Z M43.0338079,13.9354745 C45.4289583,13.9354745 53.6778935,14.578287 57.565463,23.2937384 C58.8449884,26.1628819 58.5177778,31.3616551 58.2543171,35.5384606 C58.2126042,36.2007523 58.1720718,36.842581 58.139213,37.4566667 L58.1248495,37.7199306 L58.3013426,37.9160995 C58.3717824,37.9953935 59.0376157,38.690544 60.5170486,38.7479977 L60.5418403,38.748588 L60.5660417,38.7479977 C61.5441319,38.7112037 62.6465741,38.4078009 63.8440509,37.8466435 C64.0197569,37.7640046 64.254294,37.7238657 64.5024074,37.7238657 C64.7857407,37.7238657 65.0859954,37.7769907 65.333912,37.8814699 L65.3710995,37.8964236 C65.9983681,38.1162037 66.4422569,38.5313657 66.4497338,38.9059954 C66.4534722,39.1190856 66.2940972,39.8825116 64.069537,40.7610417 C63.8523148,40.8472222 63.5656366,40.9379282 63.2340972,41.0426042 C61.7865394,41.5028241 59.5995602,42.1960069 58.863287,43.9296528 C58.4485185,44.9081366 58.5614583,46.0609491 59.2001389,47.3570023 C59.463206,47.9701042 63.5943634,57.2789815 72.8939931,58.8111458 C72.8914352,58.8542361 72.8810069,58.9032292 72.8558218,58.9600926 C72.6978241,59.3313773 71.6959259,60.6130671 65.4627894,61.5752199 C64.4870602,61.7257407 64.2478009,62.8183449 63.9703704,64.09 C63.8714005,64.5445139 63.7686921,65.0031597 63.6287963,65.4783333 C63.5864931,65.6219676 63.5784259,65.6304282 63.4239699,65.6304282 C63.4029167,65.6304282 63.378912,65.6304282 63.351169,65.6304282 C63.0747222,65.6304282 62.6544444,65.5729745 62.1678588,65.4777431 C61.2844097,65.3049884 60.072963,65.0932755 58.5262384,65.0932755 C57.6630556,65.0932755 56.7729167,65.1682407 55.8810069,65.3162037 C53.9736227,65.6337731 52.4217824,66.7312963 50.7782523,67.8921759 C48.5721875,69.4522801 46.2919444,71.0641319 42.8120602,71.0641319 C42.6611458,71.0641319 42.5121991,71.059213 42.3634491,71.0521296 L42.324294,71.050162 L42.2847454,71.0537037 C42.1993519,71.060787 42.1133681,71.0641319 42.0252199,71.0641319 C38.5461227,71.0641319 36.2648958,69.4522801 34.0592245,67.8927662 C32.4162847,66.7312963 30.8640509,65.6337731 28.9570602,65.3162037 C28.0647569,65.1682407 27.1752083,65.0932755 26.3118287,65.0932755 C24.7654977,65.0932755 23.5540509,65.3287963 22.6700116,65.5017477 C22.1836227,65.5973727 21.7627546,65.6790278 21.4868981,65.6790278 C21.261412,65.6790278 21.2566898,65.6660417 21.2090741,65.503125 C21.069375,65.0275579 20.9668634,64.556713 20.8676968,64.1025926 C20.5900694,62.8311343 20.3498264,61.7318403 19.3752778,61.5815162 C13.1415509,60.6189699 12.1402431,59.3341319 11.9820486,58.9636343 C11.9568634,58.9061806 11.9464352,58.8560069 11.9442708,58.8123264 C21.2431134,57.280162 25.3742708,47.9724653 25.637338,47.3575926 C26.2760185,46.0609491 26.3895486,44.9089236 25.9743866,43.9310301 C25.2387037,42.196794 23.0515278,41.5028241 21.6037731,41.0426042 C21.272037,40.9383218 20.9855556,40.8472222 20.7681366,40.7610417 C18.8886921,40.0188657 18.3112037,39.2711806 18.3977778,38.8178472 C18.497338,38.2952546 19.4030208,37.7640046 20.193206,37.7640046 C20.3710764,37.7640046 20.5263194,37.792338 20.6416204,37.8466435 C21.9254745,38.4473495 23.0981597,38.7531134 24.1252431,38.7531134 C25.7418171,38.7531134 26.4613657,38.0009028 26.5377083,37.915706 L26.7130208,37.7199306 L26.6986574,37.4574537 C26.6657986,36.8445486 26.625463,36.2029167 26.5835532,35.5410185 C26.3204861,31.364213 25.9932755,26.1689815 27.2729977,23.2992477 C31.1454167,14.6158681 39.3540162,13.9468866 41.7775,13.9468866 C41.8373148,13.9468866 42.8905671,13.9364583 42.8905671,13.9364583 C42.9358218,13.9354745 42.9832407,13.9354745 43.0338079,13.9354745 L43.0338079,13.9354745 Z" id="Fill-5" fill="#0B0C0A"></path>
                    </g>
                </g>
            </g>
        </g>
    </g>
</svg>