<?xml version="1.0" encoding="UTF-8"?>
<svg width="85px" height="85px" viewBox="0 0 85 85" version="1.1" xmlns="http://www.w3.org/2000/svg" xmlns:xlink="http://www.w3.org/1999/xlink">
    <!-- Generator: Sketch 64 (93537) - https://sketch.com -->
    <title>Brand/Logos/Snapchat</title>
    <desc>Created with Sketch.</desc>
    <g id="🔺--Symbols" stroke="none" stroke-width="1" fill="none" fill-rule="evenodd">
        <g id="Cards/Features/03" transform="translate(-85.000000, -56.000000)" fill="#2EBD59" fill-rule="nonzero">
            <g id="Content" transform="translate(24.000000, 56.000000)">
                <g id="Brand/Spotify" transform="translate(61.000000, 0.000000)">
                    <path d="M42.5,0 C65.9736302,0.00203001211 85,19.0292755 85,42.4992315 C85,65.9732475 65.9726441,85 42.5,85 C19.0283999,85 -1.20792265e-13,65.9732185 -1.20792265e-13,42.4992315 C-1.20792265e-13,19.0277675 19.0283999,0 42.5,0 L42.5,0 Z M61.111723,57.6532429 C49.9095582,50.8080711 36.0226868,49.2150046 19.8332753,52.9162386 C18.4041385,53.2410116 17.5144951,54.66202 17.8408359,56.0875815 C18.1656107,57.512679 19.5866274,58.4064064 21.0121972,58.0795454 C35.8059672,54.7000683 48.367755,56.0779535 58.3478454,62.1776179 C59.5958171,62.9404094 61.2269413,62.5481241 61.9902303,61.2960996 L61.9902303,61.2960996 L62.0761065,61.1455556 C62.722983,59.9197398 62.3102491,58.3889471 61.111723,57.6532429 Z M66.1004777,45.1707564 C52.9814773,37.1090563 33.7937496,34.8405468 18.358985,39.5237557 C16.6096264,40.0566339 15.6214978,41.9039449 16.149304,43.6563674 C16.6811702,45.4057158 18.53203,46.3933167 20.2844626,45.8640056 C33.7967656,41.7623371 51.2128335,43.7959162 62.6342409,50.8166841 C64.1917622,51.7743568 66.2309212,51.2851239 67.1921375,49.7255816 L67.1921375,49.7255816 L67.288849,49.5575815 C68.1142815,48.0257523 67.6029045,46.0956807 66.1004777,45.1707564 Z M71.6957165,30.8383489 C55.9255339,21.4764551 30.9689423,20.5959518 15.9564227,25.1533 C13.854855,25.7917388 12.6703361,28.0110641 13.3067485,30.1120976 C13.943161,32.2121451 16.1640072,33.3976722 18.2640379,32.7607704 C31.3419447,28.7916037 53.9391266,29.5396632 67.6387427,37.6754297 L67.6387427,37.6754297 C69.5220539,38.7969824 71.9682327,38.1742907 73.0847458,36.2853644 C74.204333,34.3989612 73.5846537,31.9594086 71.6957165,30.8383489 Z" id="Combined-Shape"></path>
                </g>
            </g>
        </g>
    </g>
</svg>