<?xml version="1.0" encoding="UTF-8"?>
<svg width="85px" height="70px" viewBox="0 0 85 70" version="1.1" xmlns="http://www.w3.org/2000/svg" xmlns:xlink="http://www.w3.org/1999/xlink">
    <!-- Generator: Sketch 64 (93537) - https://sketch.com -->
    <title>Brand/Logos/Snapchat</title>
    <desc>Created with Sketch.</desc>
    <g id="🔺--Symbols" stroke="none" stroke-width="1" fill="none" fill-rule="evenodd">
        <g id="Cards/Features/03" transform="translate(-85.000000, -64.000000)" fill="#1DA1F2">
            <g id="Content" transform="translate(24.000000, 56.000000)">
                <g id="Brand/Twitter" transform="translate(61.000000, 0.000000)">
                    <g id="Twitter_Logo_Blue" transform="translate(0.000000, 8.000000)">
                        <path d="M26.7308,69.0674947 C58.8064,69.0674947 76.3504,42.4930947 76.3504,19.4478947 C76.3504,18.6930947 76.3504,17.9416947 76.2994,17.1936947 C79.7124266,14.7249916 82.6586086,11.6682847 85,8.16669471 C81.8171888,9.57702074 78.4408195,10.5019121 74.9836,10.9104947 C78.6241296,8.7310337 81.3488199,5.30311946 82.6506,1.26469471 C79.2273355,3.29604278 75.4821967,4.72763558 71.5768,5.49769471 C66.1710814,-0.250364745 57.5814458,-1.65722251 50.6244675,2.06600646 C43.6674892,5.78923543 40.073335,13.7166022 41.8574,21.4028947 C27.8354455,20.6999431 14.7712177,14.0769938 5.916,3.18229471 C1.28731737,11.1506868 3.65155881,21.3446169 11.3152,26.4620947 C8.53992008,26.3798404 5.82514986,25.6311795 3.4,24.2792947 C3.4,24.3506947 3.4,24.4254947 3.4,24.5002947 C3.40227165,32.8017108 9.25395506,39.9517143 17.391,41.5954947 C14.8235566,42.2956909 12.129774,42.3980453 9.5166,41.8946947 C11.801223,48.9987323 18.3483535,53.8653598 25.8094,54.0054947 C19.6340991,58.8587633 12.0056023,61.493409 4.1514,61.4854947 C2.76387213,61.482831 1.37769382,61.3988202 0,61.2338947 C7.97516223,66.351835 17.2547056,69.0665322 26.7308,69.0538947" id="Path" fill-rule="nonzero"></path>
                    </g>
                </g>
            </g>
        </g>
    </g>
</svg>