<?xml version="1.0" encoding="UTF-8"?>
<svg width="85px" height="85px" viewBox="0 0 85 85" version="1.1" xmlns="http://www.w3.org/2000/svg" xmlns:xlink="http://www.w3.org/1999/xlink">
    <!-- Generator: Sketch 64 (93537) - https://sketch.com -->
    <title>Brand/Logos/Snapchat</title>
    <desc>Created with Sketch.</desc>
    <g id="🔺--Symbols" stroke="none" stroke-width="1" fill="none" fill-rule="evenodd">
        <g id="Cards/Features/03" transform="translate(-85.000000, -56.000000)" fill="#000000">
            <g id="Content" transform="translate(24.000000, 56.000000)">
                <g id="Brand/Uber" transform="translate(61.000000, 0.000000)">
                    <g id="uber-seeklogo.com">
                        <path d="M84.9129098,66.6936475 C84.9129098,76.7612705 76.7612705,84.9129098 66.6936475,84.9129098 L18.3063525,84.9129098 C8.23872951,84.9129098 0.0870901639,76.7612705 0.0870901639,66.6936475 L0.0870901639,18.3063525 C0.0870901639,8.23872951 8.23872951,0.0870901639 18.3063525,0.0870901639 L66.6936475,0.0870901639 C76.7612705,0.0870901639 84.9129098,8.23872951 84.9129098,18.3063525 L84.9129098,66.6936475 Z M42.4651639,16.9651639 C29.0358607,16.9651639 18.045082,27.4508197 17.2612705,40.6885246 C20.2745902,40.6885246 34.7489754,40.6885246 35.079918,40.6885246 C35.4631148,40.6885246 35.5153689,40.2530738 35.5153689,40.2530738 L35.5153689,36.6997951 C35.5153689,35.9682377 36.107582,35.3934426 36.8217213,35.3934426 L48.335041,35.3934426 C49.0665984,35.3934426 49.6413934,35.9856557 49.6413934,36.6997951 L49.6413934,48.2131148 C49.6413934,48.9446721 49.0491803,49.5194672 48.335041,49.5194672 L36.8217213,49.5194672 C36.0901639,49.5194672 35.5153689,48.9272541 35.5153689,48.2131148 L35.5153689,44.2766393 C35.5153689,44.2766393 35.4979508,43.8411885 35.0973361,43.8411885 C34.7489754,43.8411885 20.3094262,43.8411885 17.2612705,43.8411885 C18.1147541,57.0092213 29.0532787,67.442623 42.4477459,67.442623 C56.3821721,67.442623 67.6864955,56.1383197 67.6864955,42.2038934 C67.7038934,28.2694672 56.3995902,16.9651639 42.4651639,16.9651639 Z" id="Shape" fill-rule="nonzero"></path>
                    </g>
                </g>
            </g>
        </g>
    </g>
</svg>